<svg width="23" height="20" viewBox="0 0 23 20" fill="none" xmlns="http://www.w3.org/2000/svg">
<path d="M22.8212 4.36979C22.6654 4.17403 22.4288 4.06 22.1786 4.06H19.6132L20.8689 2.80436C21.5104 2.1628 21.5104 1.12273 20.8689 0.481169C20.2273 -0.16039 19.1872 -0.16039 18.5457 0.481169L14.9669 4.06H8.03309L4.45433 0.481169C3.81285 -0.16039 2.7727 -0.160314 2.13114 0.481169C1.48958 1.12273 1.48958 2.1628 2.13114 2.80436L3.38679 4.06H0.821341C0.571159 4.06 0.334545 4.17403 0.178768 4.36979C0.0229167 4.56548 -0.0351472 4.82164 0.0208872 5.06547L3.30632 19.3486C3.39208 19.7216 3.72408 19.9858 4.10678 19.9858H18.8931C19.2758 19.9858 19.6077 19.7215 19.6935 19.3486L22.979 5.06547C23.0352 4.82164 22.9771 4.56555 22.8212 4.36979ZM14.3748 13.1503H12.6274V14.8978C12.6274 15.5204 12.1226 16.0252 11.5 16.0252C10.8774 16.0252 10.3726 15.5205 10.3726 14.8978V13.1503H8.62516C8.00254 13.1503 7.49774 12.6456 7.49774 12.0229C7.49774 11.4002 8.00247 10.8955 8.62516 10.8955H10.3726V9.14809C10.3726 8.52547 10.8774 8.02067 11.5 8.02067C12.1226 8.02067 12.6274 8.52539 12.6274 9.14809V10.8955H14.3748C14.9974 10.8955 15.5022 11.4003 15.5022 12.0229C15.5022 12.6455 14.9974 13.1503 14.3748 13.1503Z" fill="white"/>
</svg>
