<svg width="17" height="17" viewBox="0 0 17 17" fill="none" xmlns="http://www.w3.org/2000/svg">
<path fill-rule="evenodd" clip-rule="evenodd" d="M10.4004 5V7H6.40039V5H10.4004ZM10.9004 3C11.7288 3 12.4004 3.67157 12.4004 4.5V7.5C12.4004 8.32843 11.7288 9 10.9004 9V9.5H12.9004C13.4527 9.5 13.9004 9.94772 13.9004 10.5V12C14.7288 12 15.4004 12.6716 15.4004 13.5V15.5C15.4004 16.3284 14.7288 17 13.9004 17H10.9004C10.072 17 9.40039 16.3284 9.40039 15.5V13.5C9.40039 12.6716 10.072 12 10.9004 12H11.9004V11.5H9.90039C9.34811 11.5 8.90039 11.0523 8.90039 10.5V9H7.90039V10.5C7.90039 11.0523 7.45268 11.5 6.90039 11.5H4.90039V12H5.90039C6.72882 12 7.40039 12.6716 7.40039 13.5V15.5C7.40039 16.3284 6.72882 17 5.90039 17H2.90039C2.07196 17 1.40039 16.3284 1.40039 15.5V13.5C1.40039 12.6716 2.07196 12 2.90039 12V10.5C2.90039 9.94772 3.34811 9.5 3.90039 9.5H5.90039V9C5.07196 9 4.40039 8.32843 4.40039 7.5V4.5C4.40039 3.67157 5.07196 3 5.90039 3H10.9004ZM13.4004 14V15H11.4004V14H13.4004ZM5.40039 15V14H3.40039V15H5.40039Z" fill="#ffffff"/>
</svg>
