<svg width="22" height="22" viewBox="0 0 22 22" fill="none" xmlns="http://www.w3.org/2000/svg">
<path d="M17.1199 18.5V16.8333C17.1199 15.9493 16.7689 15.1014 16.1442 14.4763C15.5196 13.8512 14.6723 13.5 13.7889 13.5H7.12689C6.24346 13.5 5.39621 13.8512 4.77152 14.4763C4.14684 15.1014 3.7959 15.9493 3.7959 16.8333V18.5" stroke="#ffffff" stroke-width="2" stroke-linecap="round" stroke-linejoin="round"/>
<path d="M10.4579 10.1667C12.2976 10.1667 13.7889 8.67428 13.7889 6.83333C13.7889 4.99238 12.2976 3.5 10.4579 3.5C8.61829 3.5 7.12695 4.99238 7.12695 6.83333C7.12695 8.67428 8.61829 10.1667 10.4579 10.1667Z" stroke="#ffffff" stroke-linecap="round" stroke-linejoin="round"/>
<path d="M10.621 20.5C15.8651 20.5 20.115 16.246 20.115 11C20.115 5.75396 15.8651 1.5 10.621 1.5C5.37691 1.5 1.12695 5.75396 1.12695 11C1.12695 16.246 5.37691 20.5 10.621 20.5Z" stroke="#ffffff" stroke-width="2" stroke-linecap="round" stroke-linejoin="round"/>
</svg>
