<svg width="24" height="24" viewBox="0 0 24 24" fill="none" xmlns="http://www.w3.org/2000/svg">
<path d="M12.6316 11.3684H18.3158C18.6646 11.3684 18.9474 11.6512 18.9474 12C18.9474 12.3488 18.6646 12.6316 18.3158 12.6316H12.6316V18.3158C12.6316 18.6646 12.3488 18.9474 12 18.9474C11.6512 18.9474 11.3684 18.6646 11.3684 18.3158V12.6316H5.68421C5.3354 12.6316 5.05263 12.3488 5.05263 12C5.05263 11.6512 5.3354 11.3684 5.68421 11.3684H11.3684V5.68421C11.3684 5.3354 11.6512 5.05263 12 5.05263C12.3488 5.05263 12.6316 5.3354 12.6316 5.68421V11.3684ZM3.15789 0C3.50671 0 3.78947 0.282768 3.78947 0.631579C3.78947 0.98039 3.50671 1.26316 3.15789 1.26316C2.11146 1.26316 1.26316 2.11146 1.26316 3.15789C1.26316 3.50671 0.98039 3.78947 0.631579 3.78947C0.282768 3.78947 0 3.50671 0 3.15789C0 1.41384 1.41384 0 3.15789 0ZM20.8421 1.26316C20.4933 1.26316 20.2105 0.98039 20.2105 0.631579C20.2105 0.282768 20.4933 0 20.8421 0C22.5862 0 24 1.41384 24 3.15789V3.23565C24 3.58446 23.7172 3.86722 23.3684 3.86722C23.0196 3.86722 22.7368 3.58446 22.7368 3.23565V3.15789C22.7368 2.11146 21.8885 1.26316 20.8421 1.26316ZM0 5.68421C0 5.3354 0.282768 5.05263 0.631579 5.05263C0.98039 5.05263 1.26316 5.3354 1.26316 5.68421V6.94737C1.26316 7.29618 0.98039 7.57895 0.631579 7.57895C0.282768 7.57895 0 7.29618 0 6.94737V5.68421ZM0 9.47368C0 9.12487 0.282768 8.8421 0.631579 8.8421C0.98039 8.8421 1.26316 9.12487 1.26316 9.47368V10.7368C1.26316 11.0857 0.98039 11.3684 0.631579 11.3684C0.282768 11.3684 0 11.0857 0 10.7368V9.47368ZM0 13.2632C0 12.9143 0.282768 12.6316 0.631579 12.6316C0.98039 12.6316 1.26316 12.9143 1.26316 13.2632V14.5263C1.26316 14.8751 0.98039 15.1579 0.631579 15.1579C0.282768 15.1579 0 14.8751 0 14.5263V13.2632ZM0 17.0526C0 16.7038 0.282768 16.4211 0.631579 16.4211C0.98039 16.4211 1.26316 16.7038 1.26316 17.0526V18.3158C1.26316 18.6646 0.98039 18.9474 0.631579 18.9474C0.282768 18.9474 0 18.6646 0 18.3158V17.0526ZM22.7368 5.68421C22.7368 5.3354 23.0196 5.05263 23.3684 5.05263C23.7172 5.05263 24 5.3354 24 5.68421V6.94737C24 7.29618 23.7172 7.57895 23.3684 7.57895C23.0196 7.57895 22.7368 7.29618 22.7368 6.94737V5.68421ZM22.7368 9.47368C22.7368 9.12487 23.0196 8.8421 23.3684 8.8421C23.7172 8.8421 24 9.12487 24 9.47368V10.7368C24 11.0857 23.7172 11.3684 23.3684 11.3684C23.0196 11.3684 22.7368 11.0857 22.7368 10.7368V9.47368ZM22.7368 13.2632C22.7368 12.9143 23.0196 12.6316 23.3684 12.6316C23.7172 12.6316 24 12.9143 24 13.2632V14.5263C24 14.8751 23.7172 15.1579 23.3684 15.1579C23.0196 15.1579 22.7368 14.8751 22.7368 14.5263V13.2632ZM22.7368 17.0526C22.7368 16.7038 23.0196 16.4211 23.3684 16.4211C23.7172 16.4211 24 16.7038 24 17.0526V18.3158C24 18.6646 23.7172 18.9474 23.3684 18.9474C23.0196 18.9474 22.7368 18.6646 22.7368 18.3158V17.0526ZM0 20.8421C0 20.4933 0.282768 20.2105 0.631579 20.2105C0.98039 20.2105 1.26316 20.4933 1.26316 20.8421C1.26316 21.8885 2.11146 22.7368 3.15789 22.7368C3.50671 22.7368 3.78947 23.0196 3.78947 23.3684C3.78947 23.7172 3.50671 24 3.15789 24C1.41384 24 0 22.5862 0 20.8421ZM5.68421 1.26316C5.3354 1.26316 5.05263 0.98039 5.05263 0.631579C5.05263 0.282768 5.3354 0 5.68421 0H6.94737C7.29618 0 7.57895 0.282768 7.57895 0.631579C7.57895 0.98039 7.29618 1.26316 6.94737 1.26316H5.68421ZM9.47368 1.26316C9.12487 1.26316 8.8421 0.98039 8.8421 0.631579C8.8421 0.282768 9.12487 0 9.47368 0H10.7368C11.0857 0 11.3684 0.282768 11.3684 0.631579C11.3684 0.98039 11.0857 1.26316 10.7368 1.26316H9.47368ZM13.2632 1.26316C12.9143 1.26316 12.6316 0.98039 12.6316 0.631579C12.6316 0.282768 12.9143 0 13.2632 0H14.5263C14.8751 0 15.1579 0.282768 15.1579 0.631579C15.1579 0.98039 14.8751 1.26316 14.5263 1.26316H13.2632ZM17.0526 1.26316C16.7038 1.26316 16.4211 0.98039 16.4211 0.631579C16.4211 0.282768 16.7038 0 17.0526 0H18.3158C18.6646 0 18.9474 0.282768 18.9474 0.631579C18.9474 0.98039 18.6646 1.26316 18.3158 1.26316H17.0526ZM5.68421 24C5.3354 24 5.05263 23.7172 5.05263 23.3684C5.05263 23.0196 5.3354 22.7368 5.68421 22.7368H6.94737C7.29618 22.7368 7.57895 23.0196 7.57895 23.3684C7.57895 23.7172 7.29618 24 6.94737 24H5.68421ZM9.47368 24C9.12487 24 8.8421 23.7172 8.8421 23.3684C8.8421 23.0196 9.12487 22.7368 9.47368 22.7368H10.7368C11.0857 22.7368 11.3684 23.0196 11.3684 23.3684C11.3684 23.7172 11.0857 24 10.7368 24H9.47368ZM13.2632 24C12.9143 24 12.6316 23.7172 12.6316 23.3684C12.6316 23.0196 12.9143 22.7368 13.2632 22.7368H14.5263C14.8751 22.7368 15.1579 23.0196 15.1579 23.3684C15.1579 23.7172 14.8751 24 14.5263 24H13.2632ZM17.0526 24C16.7038 24 16.4211 23.7172 16.4211 23.3684C16.4211 23.0196 16.7038 22.7368 17.0526 22.7368H18.3158C18.6646 22.7368 18.9474 23.0196 18.9474 23.3684C18.9474 23.7172 18.6646 24 18.3158 24H17.0526ZM20.8421 24C20.4933 24 20.2105 23.7172 20.2105 23.3684C20.2105 23.0196 20.4933 22.7368 20.8421 22.7368C21.8885 22.7368 22.7368 21.8885 22.7368 20.8421C22.7368 20.4933 23.0196 20.2105 23.3684 20.2105C23.7172 20.2105 24 20.4933 24 20.8421C24 22.5862 22.5862 24 20.8421 24Z" fill="white"/>
</svg>
