<svg width="170" height="170" viewBox="0 0 170 170" fill="none" xmlns="http://www.w3.org/2000/svg">
<path d="M121.578 169.232C121.43 169.465 121.499 169.774 121.732 169.922C121.965 170.07 122.274 170.001 122.422 169.768L121.578 169.232ZM125.078 163.732L121.578 169.232L122.422 169.768L125.922 164.268L125.078 163.732Z" fill="#EBFFFF"/>
<path d="M124.578 169.232C124.43 169.465 124.499 169.774 124.732 169.922C124.965 170.07 125.274 170.001 125.422 169.768L124.578 169.232ZM128.078 163.732L124.578 169.232L125.422 169.768L128.922 164.268L128.078 163.732Z" fill="#EBFFFF"/>
<path d="M127.578 169.232C127.43 169.465 127.499 169.774 127.732 169.922C127.965 170.07 128.274 170.001 128.422 169.768L127.578 169.232ZM131.078 163.732L127.578 169.232L128.422 169.768L131.922 164.268L131.078 163.732Z" fill="#EBFFFF"/>
<path d="M130.578 169.232C130.43 169.465 130.499 169.774 130.732 169.922C130.965 170.07 131.274 170.001 131.422 169.768L130.578 169.232ZM134.078 163.732L130.578 169.232L131.422 169.768L134.922 164.268L134.078 163.732Z" fill="#EBFFFF"/>
<path d="M133.578 169.232C133.43 169.465 133.499 169.774 133.732 169.922C133.965 170.07 134.274 170.001 134.422 169.768L133.578 169.232ZM137.078 163.732L133.578 169.232L134.422 169.768L137.922 164.268L137.078 163.732Z" fill="#EBFFFF"/>
<path d="M136.578 169.232C136.43 169.465 136.499 169.774 136.732 169.922C136.965 170.07 137.274 170.001 137.422 169.768L136.578 169.232ZM140.078 163.732L136.578 169.232L137.422 169.768L140.922 164.268L140.078 163.732Z" fill="#EBFFFF"/>
<path d="M139.578 169.232C139.43 169.465 139.499 169.774 139.732 169.922C139.965 170.07 140.274 170.001 140.422 169.768L139.578 169.232ZM143.078 163.732L139.578 169.232L140.422 169.768L143.922 164.268L143.078 163.732Z" fill="#EBFFFF"/>
<path d="M142.578 169.232C142.43 169.465 142.499 169.774 142.732 169.922C142.965 170.07 143.274 170.001 143.422 169.768L142.578 169.232ZM146.078 163.732L142.578 169.232L143.422 169.768L146.922 164.268L146.078 163.732Z" fill="#EBFFFF"/>
<path d="M145.578 169.232C145.43 169.465 145.499 169.774 145.732 169.922C145.965 170.07 146.274 170.001 146.422 169.768L145.578 169.232ZM149.078 163.732L145.578 169.232L146.422 169.768L149.922 164.268L149.078 163.732Z" fill="#EBFFFF"/>
<g filter="url(#filter0_i_950_6736)">
<path d="M1 154.046V5.49848V5H140.449L144.868 10.4833H151.251L163.527 30.921L160.09 33.9119L165 39.8936V75.2857L160.09 79.772V89.2432L165 94.7264V163.517H123.263L118.844 169H63.3593L55.994 158.033H7.87425L1 154.046Z" fill="#051F2C"/>
</g>
<path d="M1 154.046V5.49848V5H140.449L144.868 10.4833H151.251L163.527 30.921L160.09 33.9119L165 39.8936V75.2857L160.09 79.772V89.2432L165 94.7264V163.517H123.263L118.844 169H63.3593L55.994 158.033H7.87425L1 154.046Z" stroke="#1FFCFF" stroke-width="2"/>
<path d="M54.8901 164.5H12.803L10.9074 161.5H52.2363L54.8901 164.5Z" fill="#9CEEEF" stroke="#1FFCFF"/>
<path d="M15.5275 170L13 167H55.4615L59 170H15.5275Z" fill="#EBFFFF"/>
<rect x="158" y="155" width="12" height="12" fill="#EBFFFF"/>
<path d="M133 1L59 1" stroke="#EBFFFF" stroke-linecap="round" stroke-linejoin="round"/>
<defs>
<filter id="filter0_i_950_6736" x="0" y="4" width="166" height="166" filterUnits="userSpaceOnUse" color-interpolation-filters="sRGB">
<feFlood flood-opacity="0" result="BackgroundImageFix"/>
<feBlend mode="normal" in="SourceGraphic" in2="BackgroundImageFix" result="shape"/>
<feColorMatrix in="SourceAlpha" type="matrix" values="0 0 0 0 0 0 0 0 0 0 0 0 0 0 0 0 0 0 127 0" result="hardAlpha"/>
<feOffset/>
<feGaussianBlur stdDeviation="11.5"/>
<feComposite in2="hardAlpha" operator="arithmetic" k2="-1" k3="1"/>
<feColorMatrix type="matrix" values="0 0 0 0 0.121569 0 0 0 0 0.988235 0 0 0 0 1 0 0 0 1 0"/>
<feBlend mode="normal" in2="shape" result="effect1_innerShadow_950_6736"/>
</filter>
</defs>
</svg>
