<svg width="303" height="91" viewBox="0 0 303 91" fill="none" xmlns="http://www.w3.org/2000/svg">
<g opacity="0.72" filter="url(#filter0_ddi_174_1084)">
<rect x="10" y="10" width="283" height="70.2844" rx="35.1422" fill="#00B0CB"/>
</g>
<g opacity="0.2">
<g filter="url(#filter1_i_174_1084)">
<rect x="10" y="10.7156" width="283" height="70.2844" rx="35.1422" fill="#FEFFFF"/>
</g>
<rect x="5" y="5.71561" width="293" height="80.2844" rx="40.1422" stroke="#EB8B12" stroke-width="10"/>
</g>
<mask id="mask0_174_1084" style="mask-type:alpha" maskUnits="userSpaceOnUse" x="11" y="10" width="283" height="71">
<rect x="11" y="10.7156" width="283" height="70.2844" rx="35.1422" fill="#00B0CB"/>
</mask>
<g mask="url(#mask0_174_1084)">
<path d="M59.4883 54.9219V40.3086C59.4883 39.9883 59.5938 39.7227 59.8047 39.5117C60.0156 39.3008 60.2812 39.1953 60.6016 39.1953H71.9219C72.2422 39.1953 72.5039 39.3008 72.707 39.5117C72.918 39.7227 73.0234 39.9883 73.0234 40.3086V41.4102C73.0234 41.7305 72.918 41.9961 72.707 42.207C72.5039 42.4102 72.2422 42.5117 71.9219 42.5117H63.9062V54.9219C63.9062 55.2266 63.7969 55.4844 63.5781 55.6953C63.3672 55.8984 63.1094 56 62.8047 56H60.6016C60.2969 56 60.0352 55.8984 59.8164 55.6953C59.5977 55.4844 59.4883 55.2266 59.4883 54.9219ZM74.6523 54.5469C73.4336 53.4219 72.8242 51.7656 72.8242 49.5781C72.8242 47.3828 73.4336 45.7266 74.6523 44.6094C75.8711 43.4844 77.6211 42.9219 79.9023 42.9219C82.1914 42.9219 83.9453 43.4844 85.1641 44.6094C86.3828 45.7266 86.9922 47.3828 86.9922 49.5781C86.9922 51.7656 86.3828 53.4219 85.1641 54.5469C83.9453 55.6719 82.1914 56.2344 79.9023 56.2344C77.6211 56.2344 75.8711 55.6719 74.6523 54.5469ZM77.6172 46.5312C77.1328 47.1641 76.8906 48.1758 76.8906 49.5664C76.8906 50.957 77.1328 51.9727 77.6172 52.6133C78.1016 53.2539 78.8633 53.5742 79.9023 53.5742C80.9492 53.5742 81.7148 53.2539 82.1992 52.6133C82.6914 51.9727 82.9375 50.957 82.9375 49.5664C82.9375 48.1758 82.6914 47.1641 82.1992 46.5312C81.7148 45.8984 80.9492 45.582 79.9023 45.582C78.8633 45.582 78.1016 45.8984 77.6172 46.5312ZM87.9883 55.2266L90.0977 46.707C90.6914 44.3398 92.6523 43.1562 95.9805 43.1562H101.523C101.727 43.1562 101.895 43.2266 102.027 43.3672C102.168 43.5 102.238 43.6719 102.238 43.8828V55.2852C102.238 55.4883 102.168 55.6602 102.027 55.8008C101.895 55.9336 101.727 56 101.523 56H98.8984C98.6953 56 98.5234 55.9336 98.3828 55.8008C98.25 55.6602 98.1836 55.4883 98.1836 55.2852V45.9922H95.9805C94.8867 45.9922 94.1953 46.5664 93.9062 47.7148L92.0664 55.1328C91.9961 55.3906 91.8555 55.6016 91.6445 55.7656C91.4414 55.9219 91.2227 56 90.9883 56H88.5859C88.375 56 88.2148 55.9375 88.1055 55.8125C88.0039 55.6797 87.9531 55.5664 87.9531 55.4727C87.9531 55.3789 87.9648 55.2969 87.9883 55.2266ZM106.223 54.5469C105.004 53.4219 104.395 51.7656 104.395 49.5781C104.395 47.3828 105.004 45.7266 106.223 44.6094C107.441 43.4844 109.191 42.9219 111.473 42.9219C113.762 42.9219 115.516 43.4844 116.734 44.6094C117.953 45.7266 118.562 47.3828 118.562 49.5781C118.562 51.7656 117.953 53.4219 116.734 54.5469C115.516 55.6719 113.762 56.2344 111.473 56.2344C109.191 56.2344 107.441 55.6719 106.223 54.5469ZM109.188 46.5312C108.703 47.1641 108.461 48.1758 108.461 49.5664C108.461 50.957 108.703 51.9727 109.188 52.6133C109.672 53.2539 110.434 53.5742 111.473 53.5742C112.52 53.5742 113.285 53.2539 113.77 52.6133C114.262 51.9727 114.508 50.957 114.508 49.5664C114.508 48.1758 114.262 47.1641 113.77 46.5312C113.285 45.8984 112.52 45.582 111.473 45.582C110.434 45.582 109.672 45.8984 109.188 46.5312ZM120.73 55.2852V43.8828C120.73 43.6719 120.797 43.5 120.93 43.3672C121.07 43.2266 121.242 43.1562 121.445 43.1562H128.453C129.945 43.1562 131.152 43.4453 132.074 44.0234C133.004 44.6016 133.469 45.4727 133.469 46.6367C133.469 47.793 132.988 48.668 132.027 49.2617C133.395 49.9492 134.078 50.9688 134.078 52.3203C134.078 53.6719 133.637 54.625 132.754 55.1797C131.871 55.7266 130.605 56 128.957 56H121.445C121.242 56 121.07 55.9336 120.93 55.8008C120.797 55.6602 120.73 55.4883 120.73 55.2852ZM124.785 53.3867H128.676C129.105 53.3867 129.434 53.2656 129.66 53.0234C129.895 52.7812 130.012 52.4609 130.012 52.0625C130.012 51.6641 129.895 51.3438 129.66 51.1016C129.434 50.8594 129.105 50.7383 128.676 50.7383H124.785V53.3867ZM124.785 48.1719H128.219C128.57 48.1719 128.855 48.0625 129.074 47.8438C129.301 47.6172 129.414 47.3281 129.414 46.9766C129.414 46.625 129.301 46.3398 129.074 46.1211C128.855 45.8945 128.57 45.7812 128.219 45.7812H124.785V48.1719ZM136.129 55.2852V43.8828C136.129 43.6719 136.195 43.5 136.328 43.3672C136.469 43.2266 136.641 43.1562 136.844 43.1562H139.469C139.68 43.1562 139.852 43.2266 139.984 43.3672C140.117 43.5 140.184 43.6719 140.184 43.8828V48.0781H145.316V43.8828C145.316 43.6719 145.383 43.5 145.516 43.3672C145.656 43.2266 145.832 43.1562 146.043 43.1562H148.656C148.867 43.1562 149.039 43.2266 149.172 43.3672C149.305 43.5 149.371 43.6719 149.371 43.8828V55.2852C149.371 55.4961 149.305 55.668 149.172 55.8008C149.039 55.9336 148.867 56 148.656 56H146.043C145.832 56 145.656 55.9336 145.516 55.8008C145.383 55.6602 145.316 55.4883 145.316 55.2852V50.9141H140.184V55.2852C140.184 55.4961 140.113 55.668 139.973 55.8008C139.84 55.9336 139.672 56 139.469 56H136.844C136.633 56 136.461 55.9336 136.328 55.8008C136.195 55.668 136.129 55.4961 136.129 55.2852ZM153.332 54.5234C152.129 53.3828 151.527 51.7422 151.527 49.6016C151.527 47.4531 152.133 45.8047 153.344 44.6562C154.555 43.5 156.234 42.9219 158.383 42.9219C160.531 42.9219 162.207 43.4844 163.41 44.6094C164.613 45.7266 165.215 47.332 165.215 49.4258V50.0938C165.215 50.3047 165.145 50.4805 165.004 50.6211C164.871 50.7539 164.699 50.8203 164.488 50.8203H155.664C155.742 51.7812 156.016 52.4805 156.484 52.918C156.961 53.3555 157.719 53.5742 158.758 53.5742C159.797 53.5742 160.508 53.3398 160.891 52.8711C161.273 52.4023 161.746 52.1641 162.309 52.1562H164.055C164.266 52.1562 164.438 52.2266 164.57 52.3672C164.711 52.5 164.781 52.6719 164.781 52.8828C164.781 55.125 162.645 56.2422 158.371 56.2344C156.215 56.2344 154.535 55.6641 153.332 54.5234ZM155.641 48.3477H161.09C161.012 46.5039 160.105 45.582 158.371 45.582C156.645 45.582 155.734 46.5039 155.641 48.3477ZM175.785 55.2852V43.8828C175.785 43.6719 175.852 43.5 175.984 43.3672C176.125 43.2266 176.297 43.1562 176.5 43.1562H180.531C180.992 43.1562 181.344 43.4453 181.586 44.0234L184.445 51.0078L187.305 44.0234C187.547 43.4453 187.898 43.1562 188.359 43.1562H192.391C192.602 43.1562 192.773 43.2266 192.906 43.3672C193.047 43.5 193.117 43.6719 193.117 43.8828V55.2852C193.117 55.4961 193.047 55.668 192.906 55.8008C192.773 55.9336 192.602 56 192.391 56H189.848C189.637 56 189.465 55.9336 189.332 55.8008C189.199 55.6602 189.133 55.4883 189.133 55.2852V47.9609L186.133 55.1797C185.891 55.7266 185.52 56 185.02 56H183.871C183.379 56 183.012 55.7266 182.77 55.1797L179.77 47.9609V55.2852C179.77 55.4961 179.699 55.668 179.559 55.8008C179.426 55.9336 179.254 56 179.043 56H176.5C176.289 56 176.117 55.9336 175.984 55.8008C175.852 55.668 175.785 55.4961 175.785 55.2852ZM197.066 54.5234C195.863 53.3828 195.262 51.7422 195.262 49.6016C195.262 47.4531 195.867 45.8047 197.078 44.6562C198.289 43.5 199.969 42.9219 202.117 42.9219C204.266 42.9219 205.941 43.4844 207.145 44.6094C208.348 45.7266 208.949 47.332 208.949 49.4258V50.0938C208.949 50.3047 208.879 50.4805 208.738 50.6211C208.605 50.7539 208.434 50.8203 208.223 50.8203H199.398C199.477 51.7812 199.75 52.4805 200.219 52.918C200.695 53.3555 201.453 53.5742 202.492 53.5742C203.531 53.5742 204.242 53.3398 204.625 52.8711C205.008 52.4023 205.48 52.1641 206.043 52.1562H207.789C208 52.1562 208.172 52.2266 208.305 52.3672C208.445 52.5 208.516 52.6719 208.516 52.8828C208.516 55.125 206.379 56.2422 202.105 56.2344C199.949 56.2344 198.27 55.6641 197.066 54.5234ZM199.375 48.3477H204.824C204.746 46.5039 203.84 45.582 202.105 45.582C200.379 45.582 199.469 46.5039 199.375 48.3477ZM211.105 55.2852V43.8828C211.105 43.6719 211.172 43.5 211.305 43.3672C211.445 43.2266 211.617 43.1562 211.82 43.1562H214.445C214.656 43.1562 214.828 43.2266 214.961 43.3672C215.094 43.5 215.16 43.6719 215.16 43.8828V48.0781H220.293V43.8828C220.293 43.6719 220.359 43.5 220.492 43.3672C220.633 43.2266 220.809 43.1562 221.02 43.1562H223.633C223.844 43.1562 224.016 43.2266 224.148 43.3672C224.281 43.5 224.348 43.6719 224.348 43.8828V55.2852C224.348 55.4961 224.281 55.668 224.148 55.8008C224.016 55.9336 223.844 56 223.633 56H221.02C220.809 56 220.633 55.9336 220.492 55.8008C220.359 55.6602 220.293 55.4883 220.293 55.2852V50.9141H215.16V55.2852C215.16 55.4961 215.09 55.668 214.949 55.8008C214.816 55.9336 214.648 56 214.445 56H211.82C211.609 56 211.438 55.9336 211.305 55.8008C211.172 55.668 211.105 55.4961 211.105 55.2852ZM227.23 55.2852V43.8828C227.23 43.6719 227.297 43.5 227.43 43.3672C227.57 43.2266 227.742 43.1562 227.945 43.1562H230.57C230.773 43.1562 230.941 43.2266 231.074 43.3672C231.215 43.5 231.285 43.6719 231.285 43.8828V48.0781H233.008C233.219 46.3984 233.914 45.1211 235.094 44.2461C236.281 43.3633 237.871 42.9219 239.863 42.9219C241.855 42.9219 243.449 43.4922 244.645 44.6328C245.848 45.7656 246.449 47.418 246.449 49.5898C246.449 51.7539 245.848 53.4023 244.645 54.5352C243.449 55.668 241.848 56.2344 239.84 56.2344C237.832 56.2344 236.234 55.7812 235.047 54.875C233.867 53.9609 233.18 52.6406 232.984 50.9141H231.285V55.2852C231.285 55.4883 231.215 55.6602 231.074 55.8008C230.941 55.9336 230.773 56 230.57 56H227.945C227.742 56 227.57 55.9336 227.43 55.8008C227.297 55.6602 227.23 55.4883 227.23 55.2852ZM242.395 49.5781C242.395 46.9141 241.488 45.582 239.676 45.582C237.871 45.582 236.969 46.9141 236.969 49.5781C236.969 52.2422 237.871 53.5742 239.676 53.5742C241.488 53.5742 242.395 52.2422 242.395 49.5781Z" fill="#FEFFFF"/>
</g>
<defs>
<filter id="filter0_ddi_174_1084" x="2" y="10" width="295" height="78.2844" filterUnits="userSpaceOnUse" color-interpolation-filters="sRGB">
<feFlood flood-opacity="0" result="BackgroundImageFix"/>
<feColorMatrix in="SourceAlpha" type="matrix" values="0 0 0 0 0 0 0 0 0 0 0 0 0 0 0 0 0 0 127 0" result="hardAlpha"/>
<feOffset dy="4"/>
<feGaussianBlur stdDeviation="2"/>
<feColorMatrix type="matrix" values="0 0 0 0 0 0 0 0 0 0 0 0 0 0 0 0 0 0 0.25 0"/>
<feBlend mode="normal" in2="BackgroundImageFix" result="effect1_dropShadow_174_1084"/>
<feColorMatrix in="SourceAlpha" type="matrix" values="0 0 0 0 0 0 0 0 0 0 0 0 0 0 0 0 0 0 127 0" result="hardAlpha"/>
<feOffset dy="4"/>
<feGaussianBlur stdDeviation="2"/>
<feComposite in2="hardAlpha" operator="out"/>
<feColorMatrix type="matrix" values="0 0 0 0 0 0 0 0 0 0 0 0 0 0 0 0 0 0 0.25 0"/>
<feBlend mode="normal" in2="effect1_dropShadow_174_1084" result="effect2_dropShadow_174_1084"/>
<feBlend mode="normal" in="SourceGraphic" in2="effect2_dropShadow_174_1084" result="shape"/>
<feColorMatrix in="SourceAlpha" type="matrix" values="0 0 0 0 0 0 0 0 0 0 0 0 0 0 0 0 0 0 127 0" result="hardAlpha"/>
<feOffset dx="-8" dy="6"/>
<feGaussianBlur stdDeviation="4"/>
<feComposite in2="hardAlpha" operator="arithmetic" k2="-1" k3="1"/>
<feColorMatrix type="matrix" values="0 0 0 0 0.294118 0 0 0 0 0.752941 0 0 0 0 0.694118 0 0 0 1 0"/>
<feBlend mode="normal" in2="shape" result="effect3_innerShadow_174_1084"/>
</filter>
<filter id="filter1_i_174_1084" x="0" y="0.715607" width="303" height="93.2844" filterUnits="userSpaceOnUse" color-interpolation-filters="sRGB">
<feFlood flood-opacity="0" result="BackgroundImageFix"/>
<feBlend mode="normal" in="SourceGraphic" in2="BackgroundImageFix" result="shape"/>
<feColorMatrix in="SourceAlpha" type="matrix" values="0 0 0 0 0 0 0 0 0 0 0 0 0 0 0 0 0 0 127 0" result="hardAlpha"/>
<feOffset dy="32"/>
<feGaussianBlur stdDeviation="1.5"/>
<feComposite in2="hardAlpha" operator="arithmetic" k2="-1" k3="1"/>
<feColorMatrix type="matrix" values="0 0 0 0 0 0 0 0 0 0 0 0 0 0 0 0 0 0 0.5 0"/>
<feBlend mode="normal" in2="shape" result="effect1_innerShadow_174_1084"/>
</filter>
</defs>
</svg>
