<svg width="303" height="91" viewBox="0 0 303 91" fill="none" xmlns="http://www.w3.org/2000/svg">
<g opacity="0.82" filter="url(#filter0_ddi_174_1089)">
<rect x="10" y="10" width="283" height="70.2844" rx="35.1422" fill="#EB8B12"/>
</g>
<g opacity="0.24">
<g filter="url(#filter1_i_174_1089)">
<rect x="10" y="10.7156" width="283" height="70.2844" rx="35.1422" fill="#FCFBFB"/>
</g>
<rect x="5" y="5.71561" width="293" height="80.2844" rx="40.1422" stroke="#EB8B12" stroke-width="10"/>
</g>
<mask id="mask0_174_1089" style="mask-type:alpha" maskUnits="userSpaceOnUse" x="11" y="10" width="283" height="71">
<rect x="11" y="10.7156" width="283" height="70.2844" rx="35.1422" fill="#00B0CB"/>
</mask>
<g mask="url(#mask0_174_1089)">
<path d="M75.168 53.7812C73.7227 52.3984 73 50.2617 73 47.3711C73 44.4727 73.7227 42.332 75.168 40.9492C76.6211 39.5586 78.7969 38.8633 81.6953 38.8633H84.3086C86.082 38.8633 87.6484 39.3242 89.0078 40.2461C90.375 41.168 91.0586 42.4297 91.0586 44.0312C91.0586 44.4922 90.9219 44.8242 90.6484 45.0273C90.375 45.2227 90.1094 45.3203 89.8516 45.3203H88.457C87.7383 45.3203 87.1797 44.8906 86.7812 44.0312C86.2031 42.7969 85.2422 42.1797 83.8984 42.1797H81.8125C80.1016 42.1797 78.9414 42.5469 78.332 43.2812C77.7227 44.0156 77.418 45.375 77.418 47.3594C77.418 49.3438 77.7227 50.707 78.332 51.4492C78.9414 52.1836 80.1016 52.5508 81.8125 52.5508H84.1445C85.4883 52.5508 86.4453 51.9336 87.0156 50.6992C87.4141 49.832 87.9766 49.3984 88.7031 49.3984H90.0977C90.4648 49.3984 90.7539 49.5352 90.9648 49.8086C91.1836 50.082 91.293 50.3789 91.293 50.6992C91.293 52.3008 90.6133 53.5625 89.2539 54.4844C87.8945 55.3984 86.3281 55.8555 84.5547 55.8555H81.6953C78.7969 55.8555 76.6211 55.1641 75.168 53.7812ZM93.3438 55.0469V43.6445C93.3438 43.4336 93.4102 43.2617 93.543 43.1289C93.6836 42.9883 93.8555 42.918 94.0586 42.918H105.871C106.082 42.918 106.254 42.9883 106.387 43.1289C106.52 43.2617 106.586 43.4336 106.586 43.6445V55.0469C106.586 55.2578 106.52 55.4297 106.387 55.5625C106.254 55.6953 106.082 55.7617 105.871 55.7617H103.258C103.047 55.7617 102.871 55.6953 102.73 55.5625C102.598 55.4219 102.531 55.25 102.531 55.0469V45.7539H97.3984V55.0469C97.3984 55.2578 97.3281 55.4297 97.1875 55.5625C97.0547 55.6953 96.8867 55.7617 96.6836 55.7617H94.0586C93.8477 55.7617 93.6758 55.6953 93.543 55.5625C93.4102 55.4297 93.3438 55.2578 93.3438 55.0469ZM109.469 58.9961V43.6445C109.469 43.4336 109.535 43.2617 109.668 43.1289C109.809 42.9883 109.98 42.918 110.184 42.918H112.445C112.648 42.918 112.816 42.9883 112.949 43.1289C113.09 43.2617 113.16 43.4336 113.16 43.6445V43.9961C114.395 43.1211 115.828 42.6836 117.461 42.6836C119.094 42.6836 120.457 43.2617 121.551 44.418C122.645 45.5664 123.191 47.2148 123.191 49.3633C123.191 51.5039 122.625 53.1445 121.492 54.2852C120.359 55.4258 118.832 55.9961 116.91 55.9961C115.918 55.9961 114.789 55.7969 113.523 55.3984V58.9961C113.523 59.207 113.453 59.3789 113.312 59.5117C113.18 59.6523 113.012 59.7227 112.809 59.7227H110.184C109.98 59.7227 109.809 59.6523 109.668 59.5117C109.535 59.3789 109.469 59.207 109.469 58.9961ZM113.523 52.6914C114.531 53.0117 115.379 53.1719 116.066 53.1719C117.137 53.1719 117.895 52.8672 118.34 52.2578C118.793 51.6484 119.02 50.6758 119.02 49.3398C119.02 48.0039 118.805 47.0352 118.375 46.4336C117.953 45.8242 117.316 45.5195 116.465 45.5195C115.621 45.5195 114.641 45.8711 113.523 46.5742V52.6914ZM126.461 54.3086C125.242 53.1836 124.633 51.5273 124.633 49.3398C124.633 47.1445 125.242 45.4883 126.461 44.3711C127.68 43.2461 129.43 42.6836 131.711 42.6836C134 42.6836 135.754 43.2461 136.973 44.3711C138.191 45.4883 138.801 47.1445 138.801 49.3398C138.801 51.5273 138.191 53.1836 136.973 54.3086C135.754 55.4336 134 55.9961 131.711 55.9961C129.43 55.9961 127.68 55.4336 126.461 54.3086ZM129.426 46.293C128.941 46.9258 128.699 47.9375 128.699 49.3281C128.699 50.7188 128.941 51.7344 129.426 52.375C129.91 53.0156 130.672 53.3359 131.711 53.3359C132.758 53.3359 133.523 53.0156 134.008 52.375C134.5 51.7344 134.746 50.7188 134.746 49.3281C134.746 47.9375 134.5 46.9258 134.008 46.293C133.523 45.6602 132.758 45.3438 131.711 45.3438C130.672 45.3438 129.91 45.6602 129.426 46.293ZM140.242 49.5273V47.8398C140.242 45.1523 140.715 43.1094 141.66 41.7109C142.605 40.3125 144.215 39.5078 146.488 39.2969L152.945 38.7227C152.945 38.7227 152.984 38.7227 153.062 38.7227C153.227 38.7227 153.371 38.7617 153.496 38.8398C153.637 38.9727 153.707 39.1328 153.707 39.3203V40.8555C153.707 41.1133 153.621 41.3555 153.449 41.582C153.285 41.8008 153.086 41.918 152.852 41.9336L147.93 42.3438C146.297 42.4766 145.148 42.8594 144.484 43.4922C143.82 44.1172 143.488 45.1289 143.488 46.5273C144.449 45.1758 145.918 44.5 147.895 44.5C149.871 44.5 151.441 45 152.605 46C153.777 47 154.363 48.4219 154.363 50.2656C154.363 52.1094 153.762 53.5273 152.559 54.5195C151.355 55.5039 149.605 55.9961 147.309 55.9961C142.598 55.9961 140.242 53.8398 140.242 49.5273ZM147.297 47.1719C146.344 47.1719 145.605 47.4414 145.082 47.9805C144.566 48.5117 144.309 49.2695 144.309 50.2539C144.309 51.2383 144.566 52 145.082 52.5391C145.605 53.0703 146.344 53.3359 147.297 53.3359C148.258 53.3359 149 53.0703 149.523 52.5391C150.047 52 150.309 51.2383 150.309 50.2539C150.309 49.2695 150.047 48.5117 149.523 47.9805C149 47.4414 148.258 47.1719 147.297 47.1719ZM158.676 56.9805L160.211 57.1797C161.312 57.1797 162.082 56.3711 162.52 54.7539C161.191 54.7539 160.082 54.3555 159.191 53.5586C158.301 52.7539 157.535 51.3281 156.895 49.2812L155.148 43.6211C155.125 43.5586 155.113 43.4883 155.113 43.4102C155.113 43.3242 155.16 43.2227 155.254 43.1055C155.355 42.9883 155.504 42.9258 155.699 42.918H158.148C158.375 42.918 158.59 42.9961 158.793 43.1523C159.004 43.3008 159.141 43.4883 159.203 43.7148L160.738 48.6836C161.121 49.9023 161.508 50.7461 161.898 51.2148C162.297 51.6836 162.766 51.918 163.305 51.918L165.637 43.7148C165.699 43.4883 165.82 43.3008 166 43.1523C166.188 42.9961 166.395 42.918 166.621 42.918H169.094C169.289 42.918 169.434 42.9805 169.527 43.1055C169.621 43.2305 169.668 43.3359 169.668 43.4219C169.668 43.5 169.66 43.5664 169.645 43.6211L166.574 54.5664C166.027 56.5039 165.348 57.8867 164.535 58.7148C163.73 59.543 162.691 59.957 161.418 59.957C160.145 59.957 159.242 59.9102 158.711 59.8164C158.188 59.7227 157.859 59.6055 157.727 59.4648C157.594 59.332 157.527 59.1758 157.527 58.9961V57.707C157.527 57.4961 157.594 57.3203 157.727 57.1797C157.859 57.0469 158.031 56.9805 158.242 56.9805H158.676ZM171.344 55.0469V43.6445C171.344 43.4336 171.41 43.2617 171.543 43.1289C171.684 42.9883 171.855 42.918 172.059 42.918H174.508C174.719 42.918 174.891 42.9883 175.023 43.1289C175.164 43.2617 175.234 43.4336 175.234 43.6445V51.3438L179.359 43.7617C179.484 43.5195 179.676 43.3203 179.934 43.1641C180.191 43 180.441 42.918 180.684 42.918H183.965C184.176 42.918 184.348 42.9883 184.48 43.1289C184.621 43.2617 184.691 43.4336 184.691 43.6445V55.0469C184.691 55.2578 184.621 55.4297 184.48 55.5625C184.348 55.6953 184.176 55.7617 183.965 55.7617H181.516C181.305 55.7617 181.133 55.6953 181 55.5625C180.867 55.4219 180.801 55.25 180.801 55.0469V47.3594L176.676 54.918C176.551 55.1445 176.359 55.3438 176.102 55.5156C175.844 55.6797 175.594 55.7617 175.352 55.7617H172.059C171.848 55.7617 171.676 55.6953 171.543 55.5625C171.41 55.4297 171.344 55.2578 171.344 55.0469ZM174.074 38.4766C174.074 38.0781 174.293 37.8789 174.73 37.8789H175.609C175.992 37.8789 176.266 38.0781 176.43 38.4766C176.688 39.1172 177.215 39.4375 178.012 39.4375C178.816 39.4375 179.344 39.1172 179.594 38.4766C179.75 38.0781 180.023 37.8789 180.414 37.8789H181.305C181.734 37.8789 181.949 38.0781 181.949 38.4766C181.949 39.3906 181.586 40.1406 180.859 40.7266C180.133 41.3125 179.184 41.6055 178.012 41.6055C176.848 41.6055 175.898 41.3125 175.164 40.7266C174.438 40.1406 174.074 39.3906 174.074 38.4766ZM195.977 55.0469V43.6445C195.977 43.4336 196.043 43.2617 196.176 43.1289C196.316 42.9883 196.488 42.918 196.691 42.918H199.316C199.527 42.918 199.699 42.9883 199.832 43.1289C199.965 43.2617 200.031 43.4336 200.031 43.6445V52.9258H203.699V43.6445C203.699 43.4336 203.766 43.2617 203.898 43.1289C204.039 42.9883 204.215 42.918 204.426 42.918H207.039C207.25 42.918 207.422 42.9883 207.555 43.1289C207.688 43.2617 207.754 43.4336 207.754 43.6445V52.9258H211.434V43.6445C211.434 43.4336 211.5 43.2617 211.633 43.1289C211.773 42.9883 211.945 42.918 212.148 42.918H214.762C214.973 42.918 215.145 42.9883 215.277 43.1289C215.418 43.2617 215.488 43.4336 215.488 43.6445V52.9258H216.637C216.848 52.9258 217.02 52.9961 217.152 53.1367C217.293 53.2695 217.363 53.4414 217.363 53.6523V55.0469C217.363 55.2578 217.293 55.4297 217.152 55.5625C217.02 55.6953 216.848 55.7617 216.637 55.7617H196.691C196.48 55.7617 196.309 55.6953 196.176 55.5625C196.043 55.4297 195.977 55.2578 195.977 55.0469ZM220.117 54.2852C218.914 53.1445 218.312 51.5039 218.312 49.3633C218.312 47.2148 218.918 45.5664 220.129 44.418C221.34 43.2617 223.02 42.6836 225.168 42.6836C227.316 42.6836 228.992 43.2461 230.195 44.3711C231.398 45.4883 232 47.0938 232 49.1875V49.8555C232 50.0664 231.93 50.2422 231.789 50.3828C231.656 50.5156 231.484 50.582 231.273 50.582H222.449C222.527 51.543 222.801 52.2422 223.27 52.6797C223.746 53.1172 224.504 53.3359 225.543 53.3359C226.582 53.3359 227.293 53.1016 227.676 52.6328C228.059 52.1641 228.531 51.9258 229.094 51.918H230.84C231.051 51.918 231.223 51.9883 231.355 52.1289C231.496 52.2617 231.566 52.4336 231.566 52.6445C231.566 54.8867 229.43 56.0039 225.156 55.9961C223 55.9961 221.32 55.4258 220.117 54.2852ZM222.426 48.1094H227.875C227.797 46.2656 226.891 45.3438 225.156 45.3438C223.43 45.3438 222.52 46.2656 222.426 48.1094Z" fill="#FEFFFF"/>
</g>
<defs>
<filter id="filter0_ddi_174_1089" x="2" y="10" width="295" height="78.2844" filterUnits="userSpaceOnUse" color-interpolation-filters="sRGB">
<feFlood flood-opacity="0" result="BackgroundImageFix"/>
<feColorMatrix in="SourceAlpha" type="matrix" values="0 0 0 0 0 0 0 0 0 0 0 0 0 0 0 0 0 0 127 0" result="hardAlpha"/>
<feOffset dy="4"/>
<feGaussianBlur stdDeviation="2"/>
<feColorMatrix type="matrix" values="0 0 0 0 0 0 0 0 0 0 0 0 0 0 0 0 0 0 0.25 0"/>
<feBlend mode="normal" in2="BackgroundImageFix" result="effect1_dropShadow_174_1089"/>
<feColorMatrix in="SourceAlpha" type="matrix" values="0 0 0 0 0 0 0 0 0 0 0 0 0 0 0 0 0 0 127 0" result="hardAlpha"/>
<feOffset dy="4"/>
<feGaussianBlur stdDeviation="2"/>
<feComposite in2="hardAlpha" operator="out"/>
<feColorMatrix type="matrix" values="0 0 0 0 0 0 0 0 0 0 0 0 0 0 0 0 0 0 0.25 0"/>
<feBlend mode="normal" in2="effect1_dropShadow_174_1089" result="effect2_dropShadow_174_1089"/>
<feBlend mode="normal" in="SourceGraphic" in2="effect2_dropShadow_174_1089" result="shape"/>
<feColorMatrix in="SourceAlpha" type="matrix" values="0 0 0 0 0 0 0 0 0 0 0 0 0 0 0 0 0 0 127 0" result="hardAlpha"/>
<feOffset dx="-8" dy="6"/>
<feGaussianBlur stdDeviation="4"/>
<feComposite in2="hardAlpha" operator="arithmetic" k2="-1" k3="1"/>
<feColorMatrix type="matrix" values="0 0 0 0 1 0 0 0 0 0.421333 0 0 0 0 0.0958334 0 0 0 1 0"/>
<feBlend mode="normal" in2="shape" result="effect3_innerShadow_174_1089"/>
</filter>
<filter id="filter1_i_174_1089" x="0" y="0.715607" width="303" height="102.284" filterUnits="userSpaceOnUse" color-interpolation-filters="sRGB">
<feFlood flood-opacity="0" result="BackgroundImageFix"/>
<feBlend mode="normal" in="SourceGraphic" in2="BackgroundImageFix" result="shape"/>
<feColorMatrix in="SourceAlpha" type="matrix" values="0 0 0 0 0 0 0 0 0 0 0 0 0 0 0 0 0 0 127 0" result="hardAlpha"/>
<feOffset dy="32"/>
<feGaussianBlur stdDeviation="6"/>
<feComposite in2="hardAlpha" operator="arithmetic" k2="-1" k3="1"/>
<feColorMatrix type="matrix" values="0 0 0 0 0.921569 0 0 0 0 0.545098 0 0 0 0 0.0705882 0 0 0 0.8 0"/>
<feBlend mode="normal" in2="shape" result="effect1_innerShadow_174_1089"/>
</filter>
</defs>
</svg>
