<svg width="303" height="91" viewBox="0 0 303 91" fill="none" xmlns="http://www.w3.org/2000/svg">
<g opacity="0.72" filter="url(#filter0_ddi_284_121)">
<rect x="10" y="10" width="283" height="70.2844" rx="35.1422" fill="#00B0CB"/>
</g>
<g opacity="0.2">
<g filter="url(#filter1_i_284_121)">
<rect x="10" y="10.7156" width="283" height="70.2844" rx="35.1422" fill="#FEFFFF"/>
</g>
<rect x="5" y="5.71561" width="293" height="80.2844" rx="40.1422" stroke="#EB8B12" stroke-width="10"/>
</g>
<mask id="mask0_284_121" style="mask-type:alpha" maskUnits="userSpaceOnUse" x="11" y="10" width="283" height="71">
<rect x="11" y="10.7156" width="283" height="70.2844" rx="35.1422" fill="#00B0CB"/>
</mask>
<g mask="url(#mask0_284_121)">
<path d="M77.6133 54.6602V40.0703C77.6133 39.7656 77.7188 39.5039 77.9297 39.2852C78.1406 39.0664 78.3984 38.957 78.7031 38.957H93.9141C94.2188 38.957 94.4766 39.0664 94.6875 39.2852C94.9062 39.5039 95.0156 39.7656 95.0156 40.0703V54.6602C95.0156 54.9648 94.9023 55.2266 94.6758 55.4453C94.457 55.6562 94.1953 55.7617 93.8906 55.7617H91.7109C91.4062 55.7617 91.1445 55.6562 90.9258 55.4453C90.707 55.2266 90.5977 54.9648 90.5977 54.6602V42.2734H82.0312V54.6602C82.0312 54.9648 81.9219 55.2266 81.7031 55.4453C81.4922 55.6562 81.2344 55.7617 80.9297 55.7617H78.7266C78.4219 55.7617 78.1602 55.6562 77.9414 55.4453C77.7227 55.2266 77.6133 54.9648 77.6133 54.6602ZM99.2227 54.2852C98.0195 53.1445 97.418 51.5039 97.418 49.3633C97.418 47.2148 98.0234 45.5664 99.2344 44.418C100.445 43.2617 102.125 42.6836 104.273 42.6836C106.422 42.6836 108.098 43.2461 109.301 44.3711C110.504 45.4883 111.105 47.0938 111.105 49.1875V49.8555C111.105 50.0664 111.035 50.2422 110.895 50.3828C110.762 50.5156 110.59 50.582 110.379 50.582H101.555C101.633 51.543 101.906 52.2422 102.375 52.6797C102.852 53.1172 103.609 53.3359 104.648 53.3359C105.688 53.3359 106.398 53.1016 106.781 52.6328C107.164 52.1641 107.637 51.9258 108.199 51.918H109.945C110.156 51.918 110.328 51.9883 110.461 52.1289C110.602 52.2617 110.672 52.4336 110.672 52.6445C110.672 54.8867 108.535 56.0039 104.262 55.9961C102.105 55.9961 100.426 55.4258 99.2227 54.2852ZM101.531 48.1094H106.98C106.902 46.2656 105.996 45.3438 104.262 45.3438C102.535 45.3438 101.625 46.2656 101.531 48.1094ZM113.262 58.9961V43.6445C113.262 43.4336 113.328 43.2617 113.461 43.1289C113.602 42.9883 113.773 42.918 113.977 42.918H116.238C116.441 42.918 116.609 42.9883 116.742 43.1289C116.883 43.2617 116.953 43.4336 116.953 43.6445V43.9961C118.188 43.1211 119.621 42.6836 121.254 42.6836C122.887 42.6836 124.25 43.2617 125.344 44.418C126.438 45.5664 126.984 47.2148 126.984 49.3633C126.984 51.5039 126.418 53.1445 125.285 54.2852C124.152 55.4258 122.625 55.9961 120.703 55.9961C119.711 55.9961 118.582 55.7969 117.316 55.3984V58.9961C117.316 59.207 117.246 59.3789 117.105 59.5117C116.973 59.6523 116.805 59.7227 116.602 59.7227H113.977C113.773 59.7227 113.602 59.6523 113.461 59.5117C113.328 59.3789 113.262 59.207 113.262 58.9961ZM117.316 52.6914C118.324 53.0117 119.172 53.1719 119.859 53.1719C120.93 53.1719 121.688 52.8672 122.133 52.2578C122.586 51.6484 122.812 50.6758 122.812 49.3398C122.812 48.0039 122.598 47.0352 122.168 46.4336C121.746 45.8242 121.109 45.5195 120.258 45.5195C119.414 45.5195 118.434 45.8711 117.316 46.5742V52.6914ZM130.23 54.2852C129.027 53.1445 128.426 51.5039 128.426 49.3633C128.426 47.2148 129.031 45.5664 130.242 44.418C131.453 43.2617 133.133 42.6836 135.281 42.6836C137.43 42.6836 139.105 43.2461 140.309 44.3711C141.512 45.4883 142.113 47.0938 142.113 49.1875V49.8555C142.113 50.0664 142.043 50.2422 141.902 50.3828C141.77 50.5156 141.598 50.582 141.387 50.582H132.562C132.641 51.543 132.914 52.2422 133.383 52.6797C133.859 53.1172 134.617 53.3359 135.656 53.3359C136.695 53.3359 137.406 53.1016 137.789 52.6328C138.172 52.1641 138.645 51.9258 139.207 51.918H140.953C141.164 51.918 141.336 51.9883 141.469 52.1289C141.609 52.2617 141.68 52.4336 141.68 52.6445C141.68 54.8867 139.543 56.0039 135.27 55.9961C133.113 55.9961 131.434 55.4258 130.23 54.2852ZM132.539 48.1094H137.988C137.91 46.2656 137.004 45.3438 135.27 45.3438C133.543 45.3438 132.633 46.2656 132.539 48.1094ZM144.27 55.0469V43.6445C144.27 43.4336 144.336 43.2617 144.469 43.1289C144.609 42.9883 144.781 42.918 144.984 42.918H151.992C153.484 42.918 154.691 43.207 155.613 43.7852C156.543 44.3633 157.008 45.2344 157.008 46.3984C157.008 47.5547 156.527 48.4297 155.566 49.0234C156.934 49.7109 157.617 50.7305 157.617 52.082C157.617 53.4336 157.176 54.3867 156.293 54.9414C155.41 55.4883 154.145 55.7617 152.496 55.7617H144.984C144.781 55.7617 144.609 55.6953 144.469 55.5625C144.336 55.4219 144.27 55.25 144.27 55.0469ZM148.324 53.1484H152.215C152.645 53.1484 152.973 53.0273 153.199 52.7852C153.434 52.543 153.551 52.2227 153.551 51.8242C153.551 51.4258 153.434 51.1055 153.199 50.8633C152.973 50.6211 152.645 50.5 152.215 50.5H148.324V53.1484ZM148.324 47.9336H151.758C152.109 47.9336 152.395 47.8242 152.613 47.6055C152.84 47.3789 152.953 47.0898 152.953 46.7383C152.953 46.3867 152.84 46.1016 152.613 45.8828C152.395 45.6562 152.109 45.543 151.758 45.543H148.324V47.9336ZM159.668 40.4688V40.0703C159.668 39.6562 159.785 39.3281 160.02 39.0859C160.262 38.8438 160.594 38.7227 161.016 38.7227H162.469C162.883 38.7227 163.211 38.8438 163.453 39.0859C163.695 39.3203 163.816 39.6484 163.816 40.0703V40.4688C163.816 40.8828 163.695 41.2109 163.453 41.4531C163.219 41.6953 162.891 41.8164 162.469 41.8164H161.016C160.602 41.8164 160.273 41.6953 160.031 41.4531C159.789 41.2109 159.668 40.8828 159.668 40.4688ZM159.715 55.0469V43.9258C159.715 43.7148 159.781 43.543 159.914 43.4102C160.055 43.2773 160.227 43.2109 160.43 43.2109H163.055C163.266 43.2109 163.438 43.2812 163.57 43.4219C163.703 43.5547 163.77 43.7227 163.77 43.9258V55.0469C163.77 55.2578 163.699 55.4297 163.559 55.5625C163.426 55.6953 163.258 55.7617 163.055 55.7617H160.43C160.219 55.7617 160.047 55.6953 159.914 55.5625C159.781 55.4297 159.715 55.2578 159.715 55.0469ZM166.699 58.9961V43.6445C166.699 43.4336 166.766 43.2617 166.898 43.1289C167.039 42.9883 167.211 42.918 167.414 42.918H169.676C169.879 42.918 170.047 42.9883 170.18 43.1289C170.32 43.2617 170.391 43.4336 170.391 43.6445V43.9961C171.625 43.1211 173.059 42.6836 174.691 42.6836C176.324 42.6836 177.688 43.2617 178.781 44.418C179.875 45.5664 180.422 47.2148 180.422 49.3633C180.422 51.5039 179.855 53.1445 178.723 54.2852C177.59 55.4258 176.062 55.9961 174.141 55.9961C173.148 55.9961 172.02 55.7969 170.754 55.3984V58.9961C170.754 59.207 170.684 59.3789 170.543 59.5117C170.41 59.6523 170.242 59.7227 170.039 59.7227H167.414C167.211 59.7227 167.039 59.6523 166.898 59.5117C166.766 59.3789 166.699 59.207 166.699 58.9961ZM170.754 52.6914C171.762 53.0117 172.609 53.1719 173.297 53.1719C174.367 53.1719 175.125 52.8672 175.57 52.2578C176.023 51.6484 176.25 50.6758 176.25 49.3398C176.25 48.0039 176.035 47.0352 175.605 46.4336C175.184 45.8242 174.547 45.5195 173.695 45.5195C172.852 45.5195 171.871 45.8711 170.754 46.5742V52.6914ZM182.59 55.0469V43.6445C182.59 43.4336 182.656 43.2617 182.789 43.1289C182.93 42.9883 183.102 42.918 183.305 42.918H185.754C185.965 42.918 186.137 42.9883 186.27 43.1289C186.41 43.2617 186.48 43.4336 186.48 43.6445V51.3438L190.605 43.7617C190.73 43.5195 190.922 43.3203 191.18 43.1641C191.438 43 191.688 42.918 191.93 42.918H195.211C195.422 42.918 195.594 42.9883 195.727 43.1289C195.867 43.2617 195.938 43.4336 195.938 43.6445V55.0469C195.938 55.2578 195.867 55.4297 195.727 55.5625C195.594 55.6953 195.422 55.7617 195.211 55.7617H192.762C192.551 55.7617 192.379 55.6953 192.246 55.5625C192.113 55.4219 192.047 55.25 192.047 55.0469V47.3594L187.922 54.918C187.797 55.1445 187.605 55.3438 187.348 55.5156C187.09 55.6797 186.84 55.7617 186.598 55.7617H183.305C183.094 55.7617 182.922 55.6953 182.789 55.5625C182.656 55.4297 182.59 55.2578 182.59 55.0469ZM197.602 45.0391V43.6445C197.602 43.4336 197.668 43.2617 197.801 43.1289C197.941 42.9883 198.117 42.918 198.328 42.918H209.871C210.082 42.918 210.254 42.9883 210.387 43.1289C210.52 43.2617 210.586 43.4336 210.586 43.6445V45.0391C210.586 45.2422 210.52 45.4141 210.387 45.5547C210.254 45.6875 210.082 45.7539 209.871 45.7539H206.133V55.0469C206.133 55.25 206.062 55.4219 205.922 55.5625C205.789 55.6953 205.617 55.7617 205.406 55.7617H202.793C202.582 55.7617 202.406 55.6953 202.266 55.5625C202.133 55.4219 202.066 55.25 202.066 55.0469V45.7539H198.328C198.117 45.7539 197.941 45.6875 197.801 45.5547C197.668 45.4141 197.602 45.2422 197.602 45.0391ZM212.285 55.0469V43.6445C212.285 43.4336 212.352 43.2617 212.484 43.1289C212.625 42.9883 212.797 42.918 213 42.918H215.449C215.66 42.918 215.832 42.9883 215.965 43.1289C216.105 43.2617 216.176 43.4336 216.176 43.6445V51.3438L220.301 43.7617C220.426 43.5195 220.617 43.3203 220.875 43.1641C221.133 43 221.383 42.918 221.625 42.918H224.906C225.117 42.918 225.289 42.9883 225.422 43.1289C225.562 43.2617 225.633 43.4336 225.633 43.6445V55.0469C225.633 55.2578 225.562 55.4297 225.422 55.5625C225.289 55.6953 225.117 55.7617 224.906 55.7617H222.457C222.246 55.7617 222.074 55.6953 221.941 55.5625C221.809 55.4219 221.742 55.25 221.742 55.0469V47.3594L217.617 54.918C217.492 55.1445 217.301 55.3438 217.043 55.5156C216.785 55.6797 216.535 55.7617 216.293 55.7617H213C212.789 55.7617 212.617 55.6953 212.484 55.5625C212.352 55.4297 212.285 55.2578 212.285 55.0469Z" fill="#FEFFFF"/>
</g>
<defs>
<filter id="filter0_ddi_284_121" x="2" y="10" width="295" height="78.2844" filterUnits="userSpaceOnUse" color-interpolation-filters="sRGB">
<feFlood flood-opacity="0" result="BackgroundImageFix"/>
<feColorMatrix in="SourceAlpha" type="matrix" values="0 0 0 0 0 0 0 0 0 0 0 0 0 0 0 0 0 0 127 0" result="hardAlpha"/>
<feOffset dy="4"/>
<feGaussianBlur stdDeviation="2"/>
<feColorMatrix type="matrix" values="0 0 0 0 0 0 0 0 0 0 0 0 0 0 0 0 0 0 0.25 0"/>
<feBlend mode="normal" in2="BackgroundImageFix" result="effect1_dropShadow_284_121"/>
<feColorMatrix in="SourceAlpha" type="matrix" values="0 0 0 0 0 0 0 0 0 0 0 0 0 0 0 0 0 0 127 0" result="hardAlpha"/>
<feOffset dy="4"/>
<feGaussianBlur stdDeviation="2"/>
<feComposite in2="hardAlpha" operator="out"/>
<feColorMatrix type="matrix" values="0 0 0 0 0 0 0 0 0 0 0 0 0 0 0 0 0 0 0.25 0"/>
<feBlend mode="normal" in2="effect1_dropShadow_284_121" result="effect2_dropShadow_284_121"/>
<feBlend mode="normal" in="SourceGraphic" in2="effect2_dropShadow_284_121" result="shape"/>
<feColorMatrix in="SourceAlpha" type="matrix" values="0 0 0 0 0 0 0 0 0 0 0 0 0 0 0 0 0 0 127 0" result="hardAlpha"/>
<feOffset dx="-8" dy="6"/>
<feGaussianBlur stdDeviation="4"/>
<feComposite in2="hardAlpha" operator="arithmetic" k2="-1" k3="1"/>
<feColorMatrix type="matrix" values="0 0 0 0 0.294118 0 0 0 0 0.752941 0 0 0 0 0.694118 0 0 0 1 0"/>
<feBlend mode="normal" in2="shape" result="effect3_innerShadow_284_121"/>
</filter>
<filter id="filter1_i_284_121" x="0" y="0.715607" width="303" height="93.2844" filterUnits="userSpaceOnUse" color-interpolation-filters="sRGB">
<feFlood flood-opacity="0" result="BackgroundImageFix"/>
<feBlend mode="normal" in="SourceGraphic" in2="BackgroundImageFix" result="shape"/>
<feColorMatrix in="SourceAlpha" type="matrix" values="0 0 0 0 0 0 0 0 0 0 0 0 0 0 0 0 0 0 127 0" result="hardAlpha"/>
<feOffset dy="32"/>
<feGaussianBlur stdDeviation="1.5"/>
<feComposite in2="hardAlpha" operator="arithmetic" k2="-1" k3="1"/>
<feColorMatrix type="matrix" values="0 0 0 0 0 0 0 0 0 0 0 0 0 0 0 0 0 0 0.5 0"/>
<feBlend mode="normal" in2="shape" result="effect1_innerShadow_284_121"/>
</filter>
</defs>
</svg>
