<svg width="19" height="18" viewBox="0 0 19 18" fill="none" xmlns="http://www.w3.org/2000/svg">
<path d="M16.9004 2.25H12.4004C11.6047 2.25 10.8417 2.56607 10.2791 3.12868C9.71646 3.69129 9.40039 4.45435 9.40039 5.25V15.75C9.40039 15.1533 9.63744 14.581 10.0594 14.159C10.4814 13.7371 11.0537 13.5 11.6504 13.5H16.9004V2.25Z" stroke="#42E1E8" stroke-linecap="round" stroke-linejoin="round"/>
<path d="M1.90039 2.25H6.40039C7.19604 2.25 7.9591 2.56607 8.52171 3.12868C9.08432 3.69129 9.40039 4.45435 9.40039 5.25V15.75C9.40039 15.1533 9.16334 14.581 8.74138 14.159C8.31942 13.7371 7.74713 13.5 7.15039 13.5H1.90039V2.25Z" stroke="#42E1E8" stroke-linecap="round" stroke-linejoin="round"/>
</svg>
