<svg width="17" height="16" viewBox="0 0 17 16" fill="none" xmlns="http://www.w3.org/2000/svg">
<path d="M8.40007 14.6667C12.082 14.6667 15.0667 11.6819 15.0667 8.00001C15.0667 4.31811 12.082 1.33334 8.40007 1.33334C4.71817 1.33334 1.7334 4.31811 1.7334 8.00001C1.7334 11.6819 4.71817 14.6667 8.40007 14.6667Z" stroke="#42E1E8" stroke-linecap="round" stroke-linejoin="round"/>
<path d="M8.40039 11.3333H8.40872" stroke="#42E1E8" stroke-linecap="round" stroke-linejoin="round"/>
<path d="M6.45996 6.00001C6.6167 5.55446 6.92606 5.17875 7.33326 4.93944C7.74047 4.70012 8.21922 4.61264 8.68474 4.69249C9.15026 4.77234 9.5725 5.01436 9.87668 5.3757C10.1809 5.73703 10.3473 6.19436 10.3466 6.66668C10.3466 8.00001 8.34663 8.66668 8.34663 8.66668" stroke="#42E1E8" stroke-linecap="round" stroke-linejoin="round"/>
</svg>
