<svg width="19" height="19" viewBox="0 0 19 19" fill="none" xmlns="http://www.w3.org/2000/svg">
<g clip-path="url(#clip0)">
<path d="M15.0417 8.70833H3.95833C3.08388 8.70833 2.375 9.41721 2.375 10.2917V15.8333C2.375 16.7078 3.08388 17.4167 3.95833 17.4167H15.0417C15.9161 17.4167 16.625 16.7078 16.625 15.8333V10.2917C16.625 9.41721 15.9161 8.70833 15.0417 8.70833Z" stroke="#858585" stroke-linecap="round" stroke-linejoin="round"/>
<path d="M5.5415 8.70833V5.54166C5.5415 4.49185 5.95854 3.48503 6.70087 2.7427C7.4432 2.00037 8.45002 1.58333 9.49984 1.58333C10.5497 1.58333 11.5565 2.00037 12.2988 2.7427C13.0411 3.48503 13.4582 4.49185 13.4582 5.54166V8.70833" stroke="#858585" stroke-linecap="round" stroke-linejoin="round"/>
<circle cx="14.125" cy="5.16016" r="4.5" fill="#E04B41"/>
<g clip-path="url(#clip1)">
<path d="M15.3527 4.18007L13.1709 6.36189" stroke="#778192" stroke-linecap="round" stroke-linejoin="round"/>
<path d="M13.1709 4.18007L15.3527 6.36189" stroke="#778192" stroke-linecap="round" stroke-linejoin="round"/>
</g>
</g>
<defs>
<clipPath id="clip0">
<rect width="19" height="19" fill="white"/>
</clipPath>
<clipPath id="clip1">
<rect width="4.36364" height="4.36364" fill="white" transform="translate(12.0801 3.08914)"/>
</clipPath>
</defs>
</svg>
