<svg width="19" height="19" viewBox="0 0 19 19" fill="none" xmlns="http://www.w3.org/2000/svg">
<path d="M15.0417 8.70833H3.95833C3.08388 8.70833 2.375 9.41721 2.375 10.2917V15.8333C2.375 16.7078 3.08388 17.4167 3.95833 17.4167H15.0417C15.9161 17.4167 16.625 16.7078 16.625 15.8333V10.2917C16.625 9.41721 15.9161 8.70833 15.0417 8.70833Z" stroke="#858585" stroke-linecap="round" stroke-linejoin="round"/>
<path d="M5.5415 8.70833V5.54166C5.5415 4.49184 5.95854 3.48503 6.70087 2.74269C7.4432 2.00036 8.45002 1.58332 9.49984 1.58332C10.5497 1.58332 11.5565 2.00036 12.2988 2.74269C13.0411 3.48503 13.4582 4.49184 13.4582 5.54166V8.70833" stroke="#858585" stroke-linecap="round" stroke-linejoin="round"/>
</svg>
