<svg width="16" height="16" viewBox="0 0 16 16" fill="none" xmlns="http://www.w3.org/2000/svg">
<path d="M8 10C9.10457 10 10 9.10457 10 8C10 6.89543 9.10457 6 8 6C6.89543 6 6 6.89543 6 8C6 9.10457 6.89543 10 8 10Z" stroke="#42E1E8" stroke-linecap="round" stroke-linejoin="round"/>
<path d="M12.9337 9.99999C12.8449 10.2011 12.8184 10.4241 12.8577 10.6404C12.8969 10.8566 13 11.0562 13.1537 11.2133L13.1937 11.2533C13.3176 11.3772 13.416 11.5242 13.4831 11.6861C13.5502 11.8479 13.5847 12.0214 13.5847 12.1967C13.5847 12.3719 13.5502 12.5454 13.4831 12.7072C13.416 12.8691 13.3176 13.0162 13.1937 13.14C13.0698 13.264 12.9228 13.3623 12.7609 13.4294C12.599 13.4965 12.4255 13.531 12.2503 13.531C12.0751 13.531 11.9016 13.4965 11.7397 13.4294C11.5779 13.3623 11.4308 13.264 11.307 13.14L11.267 13.1C11.1099 12.9463 10.9103 12.8432 10.6941 12.804C10.4778 12.7648 10.2547 12.7912 10.0537 12.88C9.85648 12.9645 9.68831 13.1048 9.56986 13.2837C9.45141 13.4625 9.38785 13.6721 9.38699 13.8867V14C9.38699 14.3536 9.24652 14.6927 8.99647 14.9428C8.74642 15.1928 8.40728 15.3333 8.05366 15.3333C7.70004 15.3333 7.3609 15.1928 7.11085 14.9428C6.8608 14.6927 6.72033 14.3536 6.72033 14V13.94C6.71516 13.7193 6.64374 13.5053 6.51533 13.3258C6.38693 13.1463 6.20748 13.0095 6.00033 12.9333C5.79925 12.8446 5.5762 12.8181 5.35993 12.8573C5.14367 12.8965 4.94411 12.9996 4.78699 13.1533L4.74699 13.1933C4.62316 13.3173 4.47611 13.4156 4.31425 13.4827C4.15238 13.5498 3.97888 13.5844 3.80366 13.5844C3.62844 13.5844 3.45494 13.5498 3.29307 13.4827C3.13121 13.4156 2.98416 13.3173 2.86033 13.1933C2.73636 13.0695 2.63801 12.9224 2.57091 12.7606C2.50381 12.5987 2.46928 12.4252 2.46928 12.25C2.46928 12.0748 2.50381 11.9013 2.57091 11.7394C2.63801 11.5775 2.73636 11.4305 2.86033 11.3067L2.90033 11.2667C3.05402 11.1095 3.15712 10.91 3.19633 10.6937C3.23554 10.4775 3.20907 10.2544 3.12033 10.0533C3.03582 9.85614 2.8955 9.68798 2.71664 9.56953C2.53778 9.45108 2.32818 9.38751 2.11366 9.38666H2.00033C1.6467 9.38666 1.30756 9.24618 1.05752 8.99613C0.807468 8.74608 0.666992 8.40694 0.666992 8.05332C0.666992 7.6997 0.807468 7.36056 1.05752 7.11051C1.30756 6.86047 1.6467 6.71999 2.00033 6.71999H2.06033C2.28099 6.71483 2.495 6.6434 2.67452 6.515C2.85405 6.38659 2.9908 6.20715 3.06699 5.99999C3.15574 5.79891 3.18221 5.57586 3.143 5.3596C3.10378 5.14333 3.00068 4.94378 2.84699 4.78666L2.80699 4.74666C2.68302 4.62283 2.58468 4.47577 2.51758 4.31391C2.45048 4.15205 2.41594 3.97854 2.41594 3.80332C2.41594 3.6281 2.45048 3.4546 2.51758 3.29274C2.58468 3.13087 2.68302 2.98382 2.80699 2.85999C2.93082 2.73602 3.07787 2.63768 3.23974 2.57058C3.4016 2.50348 3.5751 2.46894 3.75033 2.46894C3.92555 2.46894 4.09905 2.50348 4.26091 2.57058C4.42278 2.63768 4.56983 2.73602 4.69366 2.85999L4.73366 2.89999C4.89078 3.05368 5.09034 3.15678 5.3066 3.19599C5.52286 3.23521 5.74591 3.20873 5.94699 3.11999H6.00033C6.1975 3.03548 6.36567 2.89516 6.48412 2.7163C6.60257 2.53744 6.66614 2.32785 6.66699 2.11332V1.99999C6.66699 1.64637 6.80747 1.30723 7.05752 1.05718C7.30756 0.807132 7.6467 0.666656 8.00033 0.666656C8.35395 0.666656 8.69309 0.807132 8.94313 1.05718C9.19318 1.30723 9.33366 1.64637 9.33366 1.99999V2.05999C9.33451 2.27451 9.39808 2.48411 9.51653 2.66297C9.63498 2.84183 9.80315 2.98215 10.0003 3.06666C10.2014 3.1554 10.4245 3.18187 10.6407 3.14266C10.857 3.10345 11.0565 3.00035 11.2137 2.84666L11.2537 2.80666C11.3775 2.68269 11.5245 2.58434 11.6864 2.51724C11.8483 2.45014 12.0218 2.41561 12.197 2.41561C12.3722 2.41561 12.5457 2.45014 12.7076 2.51724C12.8694 2.58434 13.0165 2.68269 13.1403 2.80666C13.2643 2.93049 13.3626 3.07754 13.4297 3.2394C13.4968 3.40127 13.5314 3.57477 13.5314 3.74999C13.5314 3.92521 13.4968 4.09871 13.4297 4.26058C13.3626 4.42244 13.2643 4.56949 13.1403 4.69332L13.1003 4.73332C12.9466 4.89044 12.8435 5.09 12.8043 5.30626C12.7651 5.52253 12.7916 5.74558 12.8803 5.94666V5.99999C12.9648 6.19717 13.1052 6.36533 13.284 6.48378C13.4629 6.60224 13.6725 6.6658 13.887 6.66666H14.0003C14.3539 6.66666 14.6931 6.80713 14.9431 7.05718C15.1932 7.30723 15.3337 7.64637 15.3337 7.99999C15.3337 8.35361 15.1932 8.69275 14.9431 8.9428C14.6931 9.19285 14.3539 9.33332 14.0003 9.33332H13.9403C13.7258 9.33418 13.5162 9.39774 13.3373 9.51619C13.1585 9.63464 13.0182 9.80281 12.9337 9.99999V9.99999Z" stroke="#42E1E8" stroke-linecap="round" stroke-linejoin="round"/>
</svg>
