<svg width="16" height="16" viewBox="0 0 16 16" fill="none" xmlns="http://www.w3.org/2000/svg">
<path d="M8 0C12.4183 0 16 3.58172 16 8C16 12.4183 12.4183 16 8 16C3.58172 16 0 12.4183 0 8C0 3.58172 3.58172 0 8 0ZM8 1C4.13401 1 1 4.13401 1 8C1 11.866 4.13401 15 8 15C11.866 15 15 11.866 15 8C15 4.13401 11.866 1 8 1ZM9.64648 8.14648C9.84175 7.95122 10.1583 7.95122 10.3535 8.14648L12.3535 10.1465C12.5488 10.3417 12.5488 10.6583 12.3535 10.8535L10.3535 12.8535C10.1583 13.0488 9.84175 13.0488 9.64648 12.8535C9.45122 12.6583 9.45122 12.3417 9.64648 12.1465L10.793 11H5.5C5.22386 11 5 10.7761 5 10.5C5 10.2239 5.22386 10 5.5 10H10.793L9.64648 8.85352C9.45122 8.65825 9.45122 8.34175 9.64648 8.14648ZM5.64648 3.14648C5.84175 2.95122 6.15825 2.95122 6.35352 3.14648C6.54878 3.34175 6.54878 3.65825 6.35352 3.85352L5.20703 5H10.5C10.7761 5 11 5.22386 11 5.5C11 5.77614 10.7761 6 10.5 6H5.20703L6.35352 7.14648C6.54878 7.34175 6.54878 7.65825 6.35352 7.85352C6.15825 8.04878 5.84175 8.04878 5.64648 7.85352L3.64648 5.85352C3.45122 5.65825 3.45122 5.34175 3.64648 5.14648L5.64648 3.14648Z" fill="#42E1E8"/>
</svg>
