<svg width="11" height="28" viewBox="0 0 11 28" fill="none" xmlns="http://www.w3.org/2000/svg">
<path d="M0.816825 11.4667C1.35016 12.2667 2.01682 12.9333 2.95016 13.3333H8.28349C8.68349 13.2 8.95016 12.9333 9.21682 12.6667C10.5502 11.3333 11.0835 9.33333 10.4168 7.6L10.2835 7.33333C10.1502 6.93333 9.88349 6.66667 9.61682 6.4C9.48349 6.13333 9.21682 6 9.08349 5.73333C8.55016 5.33333 8.01682 4.93333 7.48349 4.4C6.28349 3.2 6.15016 1.33333 6.81682 0C6.15016 0.133333 5.48349 0.533333 4.95016 1.06667C2.95016 2.66667 2.15016 5.46667 3.08349 8V8.26667C3.08349 8.4 2.95016 8.53333 2.81682 8.66667C2.68349 8.8 2.41682 8.66667 2.28349 8.53333L2.15016 8.4C1.35016 7.33333 1.21682 5.73333 1.75016 4.4C0.550158 5.46667 -0.116509 7.2 0.0168243 8.93333C0.0168243 9.33333 0.150157 9.73333 0.283491 10.1333C0.283491 10.5333 0.550158 11.0667 0.816825 11.4667ZM5.75016 9.46667C5.88349 8.8 5.61682 8.26667 5.48349 7.73333C5.35016 7.2 5.35016 6.66667 5.61682 6.13333L6.01682 6.93333C6.55016 7.73333 7.48349 8 7.75016 9.06667V9.46667C7.75016 10.1333 7.48349 10.8 7.08349 11.2C6.81682 11.3333 6.55016 11.6 6.28349 11.6C5.48349 11.8667 4.55016 11.4667 4.01682 10.9333C5.08349 10.9333 5.61682 10.1333 5.75016 9.46667ZM9.35016 14.6667V17.3333H8.01682L6.68349 28H4.01682L2.68349 17.3333H1.35016V14.6667H9.35016Z" fill="#F2F2F2"/>
</svg>
