<svg width="717" height="72" viewBox="0 0 717 72" fill="none" xmlns="http://www.w3.org/2000/svg">
<g style="mix-blend-mode:color-dodge" opacity="0.2">
<g style="mix-blend-mode:color-dodge" opacity="0.2">
<path d="M287.969 0H267.684L339.089 71.429H359.374L287.969 0Z" fill="white"/>
</g>
<g style="mix-blend-mode:color-dodge" opacity="0.2">
<path d="M154.128 0H133.843L205.272 71.429H225.557L154.128 0Z" fill="white"/>
</g>
<g style="mix-blend-mode:color-dodge" opacity="0.2">
<path d="M243.348 0H223.063L294.492 71.429H314.777L243.348 0Z" fill="white"/>
</g>
<g style="mix-blend-mode:color-dodge" opacity="0.2">
<path d="M198.748 0H178.464L249.869 71.429H270.154L198.748 0Z" fill="white"/>
</g>
<g style="mix-blend-mode:color-dodge" opacity="0.2">
<path d="M64.9083 0H44.6233L116.052 71.429H136.337L64.9083 0Z" fill="white"/>
</g>
<g style="mix-blend-mode:color-dodge" opacity="0.2">
<path d="M109.505 0H89.2437L160.649 71.429H180.934L109.505 0Z" fill="white"/>
</g>
<g style="mix-blend-mode:color-dodge" opacity="0.2">
<path d="M71.429 71.429H91.7138L20.2849 0H0L71.429 71.429Z" fill="white"/>
</g>
<g style="mix-blend-mode:color-dodge" opacity="0.2">
<path d="M332.568 0H312.283L383.712 71.429H403.997L332.568 0Z" fill="white"/>
</g>
<g style="mix-blend-mode:color-dodge" opacity="0.2">
<path d="M644.852 0H624.567L695.996 71.429H716.281L644.852 0Z" fill="white"/>
</g>
<g style="mix-blend-mode:color-dodge" opacity="0.2">
<path d="M600.228 0H579.967L651.372 71.429H671.657L600.228 0Z" fill="white"/>
</g>
<g style="mix-blend-mode:color-dodge" opacity="0.2">
<path d="M555.63 0H535.345L606.774 71.429H627.059L555.63 0Z" fill="white"/>
</g>
<g style="mix-blend-mode:color-dodge" opacity="0.2">
<path d="M421.788 0H401.503L472.932 71.429H493.217L421.788 0Z" fill="white"/>
</g>
<g style="mix-blend-mode:color-dodge" opacity="0.2">
<path d="M511.008 0H490.723L562.152 71.429H582.437L511.008 0Z" fill="white"/>
</g>
<g style="mix-blend-mode:color-dodge" opacity="0.2">
<path d="M377.189 0H356.904L428.333 71.429H448.594L377.189 0Z" fill="white"/>
</g>
<g style="mix-blend-mode:color-dodge" opacity="0.2">
<path d="M466.41 0H446.125L517.554 71.429H537.815L466.41 0Z" fill="white"/>
</g>
</g>
</svg>
