<svg width="16" height="16" viewBox="0 0 16 16" fill="none" xmlns="http://www.w3.org/2000/svg">
<path fill-rule="evenodd" clip-rule="evenodd" d="M8 15C4.13401 15 1 11.866 1 8C1 4.13401 4.13401 1 8 1C11.866 1 15 4.13401 15 8C15 11.866 11.866 15 8 15ZM8 16C3.58172 16 0 12.4183 0 8C0 3.58172 3.58172 0 8 0C12.4183 0 16 3.58172 16 8C16 12.4183 12.4183 16 8 16ZM6.35355 3.14645C6.15829 2.95118 5.84171 2.95118 5.64645 3.14645L3.64645 5.14645C3.45118 5.34171 3.45118 5.65829 3.64645 5.85355L5.64645 7.85355C5.84171 8.04882 6.15829 8.04882 6.35355 7.85355C6.54882 7.65829 6.54882 7.34171 6.35355 7.14645L5.20711 6H10.5C10.7761 6 11 5.77614 11 5.5C11 5.22386 10.7761 5 10.5 5H5.20711L6.35355 3.85355C6.54882 3.65829 6.54882 3.34171 6.35355 3.14645ZM10.3536 12.8536C10.1583 13.0488 9.84171 13.0488 9.64645 12.8536C9.45118 12.6583 9.45118 12.3417 9.64645 12.1464L10.7929 11H5.5C5.22386 11 5 10.7761 5 10.5C5 10.2239 5.22386 10 5.5 10H10.7929L9.64645 8.85355C9.45118 8.65829 9.45118 8.34171 9.64645 8.14645C9.84171 7.95118 10.1583 7.95118 10.3536 8.14645L12.3536 10.1464C12.5488 10.3417 12.5488 10.6583 12.3536 10.8536L10.3536 12.8536Z" fill="#42E1E8"/>
</svg>
