<svg width="22" height="18" viewBox="0 0 22 18" fill="none" xmlns="http://www.w3.org/2000/svg">
<path d="M13.0625 8.87402H3.4375C2.67811 8.87402 2.0625 9.48963 2.0625 10.249V15.0615C2.0625 15.8209 2.67811 16.4365 3.4375 16.4365H13.0625C13.8219 16.4365 14.4375 15.8209 14.4375 15.0615V10.249C14.4375 9.48963 13.8219 8.87402 13.0625 8.87402Z" stroke="#778192" stroke-linecap="round" stroke-linejoin="round"/>
<path d="M4.8125 8.87402V6.12402C4.8125 5.21234 5.17466 4.338 5.81932 3.69334C6.46398 3.04869 7.33832 2.68652 8.25 2.68652C9.16168 2.68652 10.036 3.04869 10.6807 3.69334C11.3253 4.338 11.6875 5.21234 11.6875 6.12402V8.87402" stroke="#778192" stroke-linecap="round" stroke-linejoin="round"/>
<circle cx="15.8125" cy="6.84766" r="6.1875" fill="#E04B41"/>
<path d="M17.5 5.5L14.5 8.5" stroke="#778192" stroke-linecap="round" stroke-linejoin="round"/>
<path d="M14.5 5.5L17.5 8.5" stroke="#778192" stroke-linecap="round" stroke-linejoin="round"/>
</svg>
