<svg width="16" height="16" viewBox="0 0 16 16" fill="none" xmlns="http://www.w3.org/2000/svg">
<path d="M12.6667 7.33333H3.33333C2.59695 7.33333 2 7.93028 2 8.66666V13.3333C2 14.0697 2.59695 14.6667 3.33333 14.6667H12.6667C13.403 14.6667 14 14.0697 14 13.3333V8.66666C14 7.93028 13.403 7.33333 12.6667 7.33333Z" stroke="#474545" stroke-width="2" stroke-linecap="round" stroke-linejoin="round"/>
<path d="M4.66602 7.33333V4.66666C4.66602 3.78261 5.01721 2.93476 5.64233 2.30964C6.26745 1.68452 7.11529 1.33333 7.99935 1.33333C8.8834 1.33333 9.73125 1.68452 10.3564 2.30964C10.9815 2.93476 11.3327 3.78261 11.3327 4.66666V7.33333" stroke="#474545" stroke-width="2" stroke-linecap="round" stroke-linejoin="round"/>
</svg>
