<svg width="131" height="92" viewBox="0 0 131 92" fill="none" xmlns="http://www.w3.org/2000/svg">
<path fill-rule="evenodd" clip-rule="evenodd" d="M70.4856 30.3467L71.8438 34.0525L77.2356 34.0747L67.2515 8.99483L64.4844 8.98375L54.1504 33.9797L59.5358 34.0019L60.9241 30.3071L70.484 30.3467H70.4856ZM66.5344 19.5409L68.8773 25.8667L62.5721 25.8398L65.7587 17.4466L66.5344 19.5409Z" fill="#FEFEFE"/>
<path d="M78.5731 64.092L74.9812 61.222L74.2388 63.9891L77.8307 66.8591L78.5731 64.0936V64.092ZM75.1506 56.8307L82.2726 62.5201L80.7213 73.693L70.5408 65.5595L70.5677 63.0884L60.7498 63.0567L60.7815 65.6038L50.5267 73.6645L49.1035 62.4773L56.3538 56.7784L56.2699 55.8666H60.3082L60.772 59.5281L70.8258 59.5614L71.2469 55.8666H75.2297L75.1506 56.8307ZM55.0842 42.9491L54.6156 37.8565L76.713 37.9294L76.2983 42.9507H72.7175L72.8885 41.4468L58.4798 41.3993L58.6761 42.9507H55.0842V42.9491ZM56.406 61.2378L52.8015 64.0714L53.4822 66.8401L57.0867 64.0065L56.4044 61.2362L56.406 61.2378Z" fill="#20FEFF"/>
<path d="M73.7086 79.1608L73.601 70.3671L70.0724 70.4178L70.1801 79.2115L73.7086 79.1608ZM61.0112 79.5043L60.9036 70.7106L57.375 70.7613L57.4826 79.555L61.0112 79.5043ZM67.3465 82.463L67.1882 66.408L63.6596 66.4602L63.8179 82.5152L67.3465 82.463Z" fill="#20FEFF"/>
<path d="M37.7331 23.489H44.5449C50.3245 23.489 50.3593 32.0215 44.5449 32.0215H37.7331V23.489ZM44.5449 19.1531C40.7598 19.1183 36.9748 19.1531 33.1914 19.1531V43.272H37.7331V36.1848H44.5449C56.3463 36.1848 56.3115 19.1531 44.5449 19.1531Z" fill="#FEFEFE"/>
<path d="M98.0751 36.5632C96.492 38.1462 94.1191 39.0058 92.02 39.0058C86.0678 39.0058 83.7629 34.8424 83.7281 30.8516C83.6933 26.826 86.2056 22.4917 92.02 22.4917C94.1191 22.4917 96.2514 23.2151 97.8345 24.7618L100.863 21.8379C98.3853 19.3953 95.2889 18.1558 92.02 18.1558C83.3149 18.1558 79.2213 24.556 79.2561 30.8516C79.2909 37.1141 83.0759 43.2721 92.02 43.2721C95.4947 43.2721 98.694 42.137 101.171 39.6944L98.0751 36.5632Z" fill="#FEFEFE"/>
<path fill-rule="evenodd" clip-rule="evenodd" d="M42.7758 53.6156H41.1722V48.4327L38.9433 51.3993H38.4937L36.3202 48.4312V53.614H34.5488V45.6767H36.4548L38.7518 48.8301L41.0487 45.6767H42.9436V53.614H42.7758V53.6156ZM48.6931 51.8663H52.9673V53.6156H46.9328V45.6561H52.9673V47.3832H48.6931V48.8095H52.8153V50.4828H48.6931V51.8663ZM64.9761 53.6156H63.3725V48.4327L61.1436 51.3993H60.6941L58.5206 48.4312V53.614H56.7492V45.6767H58.6551L60.9521 48.8301L63.2491 45.6767H65.1439V53.614H64.9761V53.6156ZM69.9832 46.6613C70.6608 45.9664 71.6312 45.5152 72.9008 45.5152L72.9577 45.5168C74.2922 45.5311 75.2975 46.0535 75.9687 46.826C76.6383 47.5969 76.9739 48.618 76.9739 49.6358L76.9723 49.6849C76.9596 50.7883 76.5876 51.8948 75.8088 52.68C75.1423 53.3528 74.1814 53.7897 72.9008 53.7897C71.6106 53.7897 70.6386 53.3544 69.9642 52.68C69.1886 51.9027 68.8166 50.8089 68.8166 49.696C68.8166 48.5815 69.2012 47.4623 69.9832 46.6613ZM72.953 47.1552H72.82C72.0285 47.1758 71.465 47.5003 71.1024 47.9657C70.7352 48.4343 70.5658 49.0485 70.5658 49.6358V49.7134C70.5832 50.364 70.7811 51.0384 71.2354 51.5086C71.6027 51.8885 72.1425 52.1386 72.8992 52.1386C73.6559 52.1386 74.1957 51.8869 74.5629 51.5038C75.0157 51.0305 75.212 50.3545 75.223 49.7039V49.6501C75.223 49.058 75.0568 48.4359 74.688 47.9626C74.3239 47.4956 73.7572 47.1695 72.9514 47.1552H72.953ZM85.614 50.8469L87.7796 53.2879V53.6156H85.8293L83.6099 51.0701H82.4717V53.6156H80.7003V45.6561L82.076 45.6593C82.8801 45.6609 83.6843 45.664 84.4885 45.6561C85.3845 45.6609 86.0826 45.949 86.5702 46.3986C87.1179 46.9035 87.3981 47.6096 87.3981 48.352C87.3981 48.9567 87.2461 49.5662 86.8567 50.0506C86.5749 50.402 86.1697 50.6838 85.6124 50.8469H85.614ZM85.3132 47.6127C85.1296 47.4402 84.8589 47.3294 84.4885 47.3294H82.4701V49.4411H84.4885C84.8621 49.4411 85.1328 49.3303 85.3148 49.1593C85.5285 48.9599 85.6251 48.6734 85.6251 48.3853C85.6251 48.0987 85.5254 47.8122 85.3117 47.6127H85.3132ZM90.7604 45.6561H92.5619L94.4077 48.6575L96.3358 45.6561H98.3241V45.9395L95.2895 50.3498V53.6156H93.5181V50.3482L90.5926 45.9379V45.6561H90.7604Z" fill="#EBECEC"/>
<path d="M30.13 37.5273C28.3064 33.8119 24.4185 32.7449 20.6683 32.7449C16.2295 32.7798 11.3443 34.8092 11.3443 39.7641C11.3443 45.1654 15.886 46.4729 20.806 47.0587C24.0053 47.4022 26.3799 48.3314 26.3799 50.603C26.3799 53.2182 23.6966 54.2155 20.8409 54.2155C17.917 54.2155 15.1293 53.0457 14.0624 50.3957L10.2773 52.357C12.0662 56.761 15.8512 58.2744 20.7712 58.2744C26.1377 58.2744 30.8867 55.9695 30.8867 50.6015C30.8867 44.8551 26.2073 43.5475 21.1844 42.9285C18.2938 42.585 15.8163 41.9993 15.8163 39.9002C15.8163 38.1114 17.4342 36.7009 20.8045 36.7009C23.4196 36.7009 25.6897 38.0085 26.516 39.3842L30.1285 37.5257L30.13 37.5273Z" fill="#FEFEFE"/>
<path d="M120.722 53.8007H107.202V48.3646H120.241V44.1332H107.202V38.5594H120.722V34.1554H102.693C102.693 42.1956 102.693 50.2579 102.693 58.2744H120.722V53.8023V53.8007Z" fill="#FEFEFE"/>
</svg>
