<svg width="16" height="14" viewBox="0 0 16 14" fill="none" xmlns="http://www.w3.org/2000/svg">
<path d="M2.41016 3.5H3.69361H13.9612" stroke="#858585" stroke-linecap="round" stroke-linejoin="round"/>
<path d="M5.62049 3.5V2.33333C5.62049 2.02391 5.75571 1.72717 5.9964 1.50837C6.2371 1.28958 6.56355 1.16666 6.90394 1.16666H9.47084C9.81123 1.16666 10.1377 1.28958 10.3784 1.50837C10.6191 1.72717 10.7543 2.02391 10.7543 2.33333V3.5M12.6795 3.5V11.6667C12.6795 11.9761 12.5442 12.2728 12.3035 12.4916C12.0629 12.7104 11.7364 12.8333 11.396 12.8333H4.97876C4.63837 12.8333 4.31192 12.7104 4.07123 12.4916C3.83053 12.2728 3.69531 11.9761 3.69531 11.6667V3.5H12.6795Z" stroke="#858585" stroke-linecap="round" stroke-linejoin="round"/>
</svg>
