<svg width="577" height="87" viewBox="0 0 577 87" fill="none" xmlns="http://www.w3.org/2000/svg">
<mask id="mask0_951_8656" style="mask-type:alpha" maskUnits="userSpaceOnUse" x="15" y="0" width="548" height="87">
<path d="M16 86V1H98.5L109 12H467L476.5 1H561.5V86H476.5L467 74.5H109L98.5 86H16Z" fill="#C4C4C4" stroke="black" stroke-width="2" stroke-linecap="round" stroke-linejoin="round"/>
</mask>
<g mask="url(#mask0_951_8656)">
<path d="M15 -107V133" stroke="#1FFCFF" stroke-opacity="0.05" stroke-linecap="round" stroke-linejoin="round"/>
<path d="M29 -107V133" stroke="#1FFCFF" stroke-opacity="0.05" stroke-linecap="round" stroke-linejoin="round"/>
<path d="M43 -107V133" stroke="#1FFCFF" stroke-opacity="0.05" stroke-linecap="round" stroke-linejoin="round"/>
<path d="M57 -107V133" stroke="#1FFCFF" stroke-opacity="0.05" stroke-linecap="round" stroke-linejoin="round"/>
<path d="M71 -107V133" stroke="#1FFCFF" stroke-opacity="0.05" stroke-linecap="round" stroke-linejoin="round"/>
<path d="M85 -107V133" stroke="#1FFCFF" stroke-opacity="0.05" stroke-linecap="round" stroke-linejoin="round"/>
<path d="M99 -107V133" stroke="#1FFCFF" stroke-opacity="0.05" stroke-linecap="round" stroke-linejoin="round"/>
<path d="M113 -107V133" stroke="#1FFCFF" stroke-opacity="0.05" stroke-linecap="round" stroke-linejoin="round"/>
<path d="M127 -107V133" stroke="#1FFCFF" stroke-opacity="0.05" stroke-linecap="round" stroke-linejoin="round"/>
<path d="M141 -107V133" stroke="#1FFCFF" stroke-opacity="0.05" stroke-linecap="round" stroke-linejoin="round"/>
<path d="M155 -107V133" stroke="#1FFCFF" stroke-opacity="0.05" stroke-linecap="round" stroke-linejoin="round"/>
<path d="M169 -107V133" stroke="#1FFCFF" stroke-opacity="0.05" stroke-linecap="round" stroke-linejoin="round"/>
<path d="M183 -107V133" stroke="#1FFCFF" stroke-opacity="0.05" stroke-linecap="round" stroke-linejoin="round"/>
<path d="M197 -107V133" stroke="#1FFCFF" stroke-opacity="0.05" stroke-linecap="round" stroke-linejoin="round"/>
<path d="M211 -107V133" stroke="#1FFCFF" stroke-opacity="0.05" stroke-linecap="round" stroke-linejoin="round"/>
<path d="M225 -107V133" stroke="#1FFCFF" stroke-opacity="0.05" stroke-linecap="round" stroke-linejoin="round"/>
<path d="M239 -107V133" stroke="#1FFCFF" stroke-opacity="0.05" stroke-linecap="round" stroke-linejoin="round"/>
<path d="M2.29736 82.7441L614.938 83.2567" stroke="#1FFCFF" stroke-opacity="0.05" stroke-linecap="round" stroke-linejoin="round"/>
<path d="M253 -107V133" stroke="#1FFCFF" stroke-opacity="0.05" stroke-linecap="round" stroke-linejoin="round"/>
<path d="M2.37451 68.7441L615.015 69.2567" stroke="#1FFCFF" stroke-opacity="0.05" stroke-linecap="round" stroke-linejoin="round"/>
<path d="M267 -107V133" stroke="#1FFCFF" stroke-opacity="0.05" stroke-linecap="round" stroke-linejoin="round"/>
<path d="M2.45117 54.7441L615.092 55.2567" stroke="#1FFCFF" stroke-opacity="0.05" stroke-linecap="round" stroke-linejoin="round"/>
<path d="M281 -107V133" stroke="#1FFCFF" stroke-opacity="0.05" stroke-linecap="round" stroke-linejoin="round"/>
<path d="M2.52686 40.7441L615.168 41.2567" stroke="#1FFCFF" stroke-opacity="0.05" stroke-linecap="round" stroke-linejoin="round"/>
<path d="M295 -107V133" stroke="#1FFCFF" stroke-opacity="0.05" stroke-linecap="round" stroke-linejoin="round"/>
<path d="M2.60254 26.7441L615.243 27.2567" stroke="#1FFCFF" stroke-opacity="0.05" stroke-linecap="round" stroke-linejoin="round"/>
<path d="M309 -107V133" stroke="#1FFCFF" stroke-opacity="0.05" stroke-linecap="round" stroke-linejoin="round"/>
<path d="M2.68066 12.7441L615.321 13.2567" stroke="#1FFCFF" stroke-opacity="0.05" stroke-linecap="round" stroke-linejoin="round"/>
<path d="M323 -107V133" stroke="#1FFCFF" stroke-opacity="0.05" stroke-linecap="round" stroke-linejoin="round"/>
<path d="M337 -107V133" stroke="#1FFCFF" stroke-opacity="0.05" stroke-linecap="round" stroke-linejoin="round"/>
<path d="M351 -107V133" stroke="#1FFCFF" stroke-opacity="0.05" stroke-linecap="round" stroke-linejoin="round"/>
<path d="M365 -107V133" stroke="#1FFCFF" stroke-opacity="0.05" stroke-linecap="round" stroke-linejoin="round"/>
<path d="M379 -107V133" stroke="#1FFCFF" stroke-opacity="0.05" stroke-linecap="round" stroke-linejoin="round"/>
<path d="M393 -107V133" stroke="#1FFCFF" stroke-opacity="0.05" stroke-linecap="round" stroke-linejoin="round"/>
<path d="M407 -107V133" stroke="#1FFCFF" stroke-opacity="0.05" stroke-linecap="round" stroke-linejoin="round"/>
<path d="M421 -107V133" stroke="#1FFCFF" stroke-opacity="0.05" stroke-linecap="round" stroke-linejoin="round"/>
<path d="M435 -107V133" stroke="#1FFCFF" stroke-opacity="0.05" stroke-linecap="round" stroke-linejoin="round"/>
<path d="M449 -107V133" stroke="#1FFCFF" stroke-opacity="0.05" stroke-linecap="round" stroke-linejoin="round"/>
<path d="M463 -107V133" stroke="#1FFCFF" stroke-opacity="0.05" stroke-linecap="round" stroke-linejoin="round"/>
<path d="M477 -107V133" stroke="#1FFCFF" stroke-opacity="0.05" stroke-linecap="round" stroke-linejoin="round"/>
<path d="M491 -107V133" stroke="#1FFCFF" stroke-opacity="0.05" stroke-linecap="round" stroke-linejoin="round"/>
<path d="M505 -107V133" stroke="#1FFCFF" stroke-opacity="0.05" stroke-linecap="round" stroke-linejoin="round"/>
<path d="M519 -107V133" stroke="#1FFCFF" stroke-opacity="0.05" stroke-linecap="round" stroke-linejoin="round"/>
<path d="M533 -107V133" stroke="#1FFCFF" stroke-opacity="0.05" stroke-linecap="round" stroke-linejoin="round"/>
<path d="M547 -107V133" stroke="#1FFCFF" stroke-opacity="0.05" stroke-linecap="round" stroke-linejoin="round"/>
<path d="M561 -107V133" stroke="#1FFCFF" stroke-opacity="0.05" stroke-linecap="round" stroke-linejoin="round"/>
<circle cx="22" cy="6" r="0.5" stroke="#1FFCFF" stroke-opacity="0.05"/>
<circle cx="22" cy="20" r="0.5" stroke="#1FFCFF" stroke-opacity="0.05"/>
<circle cx="22" cy="34" r="0.5" stroke="#1FFCFF" stroke-opacity="0.05"/>
<circle cx="22" cy="48" r="0.5" stroke="#1FFCFF" stroke-opacity="0.05"/>
<circle cx="22" cy="62" r="0.5" stroke="#1FFCFF" stroke-opacity="0.05"/>
<circle cx="22" cy="76" r="0.5" stroke="#1FFCFF" stroke-opacity="0.05"/>
<circle cx="36" cy="6" r="0.5" stroke="#1FFCFF" stroke-opacity="0.05"/>
<circle cx="36" cy="20" r="0.5" stroke="#1FFCFF" stroke-opacity="0.05"/>
<circle cx="36" cy="34" r="0.5" stroke="#1FFCFF" stroke-opacity="0.05"/>
<circle cx="36" cy="48" r="0.5" stroke="#1FFCFF" stroke-opacity="0.05"/>
<circle cx="36" cy="62" r="0.5" stroke="#1FFCFF" stroke-opacity="0.05"/>
<circle cx="36" cy="76" r="0.5" stroke="#1FFCFF" stroke-opacity="0.05"/>
<circle cx="50" cy="6" r="0.5" stroke="#1FFCFF" stroke-opacity="0.05"/>
<circle cx="50" cy="20" r="0.5" stroke="#1FFCFF" stroke-opacity="0.05"/>
<circle cx="50" cy="34" r="0.5" stroke="#1FFCFF" stroke-opacity="0.05"/>
<circle cx="50" cy="48" r="0.5" stroke="#1FFCFF" stroke-opacity="0.05"/>
<circle cx="50" cy="62" r="0.5" stroke="#1FFCFF" stroke-opacity="0.05"/>
<circle cx="50" cy="76" r="0.5" stroke="#1FFCFF" stroke-opacity="0.05"/>
<circle cx="64" cy="6" r="0.5" stroke="#1FFCFF" stroke-opacity="0.05"/>
<circle cx="64" cy="20" r="0.5" stroke="#1FFCFF" stroke-opacity="0.05"/>
<circle cx="64" cy="34" r="0.5" stroke="#1FFCFF" stroke-opacity="0.05"/>
<circle cx="64" cy="48" r="0.5" stroke="#1FFCFF" stroke-opacity="0.05"/>
<circle cx="64" cy="62" r="0.5" stroke="#1FFCFF" stroke-opacity="0.05"/>
<circle cx="64" cy="76" r="0.5" stroke="#1FFCFF" stroke-opacity="0.05"/>
<circle cx="78" cy="6" r="0.5" stroke="#1FFCFF" stroke-opacity="0.05"/>
<circle cx="78" cy="20" r="0.5" stroke="#1FFCFF" stroke-opacity="0.05"/>
<circle cx="78" cy="34" r="0.5" stroke="#1FFCFF" stroke-opacity="0.05"/>
<circle cx="78" cy="48" r="0.5" stroke="#1FFCFF" stroke-opacity="0.05"/>
<circle cx="78" cy="62" r="0.5" stroke="#1FFCFF" stroke-opacity="0.05"/>
<circle cx="78" cy="76" r="0.5" stroke="#1FFCFF" stroke-opacity="0.05"/>
<circle cx="92" cy="6" r="0.5" stroke="#1FFCFF" stroke-opacity="0.05"/>
<circle cx="92" cy="20" r="0.5" stroke="#1FFCFF" stroke-opacity="0.05"/>
<circle cx="92" cy="34" r="0.5" stroke="#1FFCFF" stroke-opacity="0.05"/>
<circle cx="92" cy="48" r="0.5" stroke="#1FFCFF" stroke-opacity="0.05"/>
<circle cx="92" cy="62" r="0.5" stroke="#1FFCFF" stroke-opacity="0.05"/>
<circle cx="92" cy="76" r="0.5" stroke="#1FFCFF" stroke-opacity="0.05"/>
<circle cx="106" cy="6" r="0.5" stroke="#1FFCFF" stroke-opacity="0.05"/>
<circle cx="106" cy="20" r="0.5" stroke="#1FFCFF" stroke-opacity="0.05"/>
<circle cx="106" cy="34" r="0.5" stroke="#1FFCFF" stroke-opacity="0.05"/>
<circle cx="106" cy="48" r="0.5" stroke="#1FFCFF" stroke-opacity="0.05"/>
<circle cx="106" cy="62" r="0.5" stroke="#1FFCFF" stroke-opacity="0.05"/>
<circle cx="106" cy="76" r="0.5" stroke="#1FFCFF" stroke-opacity="0.05"/>
<circle cx="120" cy="6" r="0.5" stroke="#1FFCFF" stroke-opacity="0.05"/>
<circle cx="120" cy="20" r="0.5" stroke="#1FFCFF" stroke-opacity="0.05"/>
<circle cx="120" cy="34" r="0.5" stroke="#1FFCFF" stroke-opacity="0.05"/>
<circle cx="120" cy="48" r="0.5" stroke="#1FFCFF" stroke-opacity="0.05"/>
<circle cx="120" cy="62" r="0.5" stroke="#1FFCFF" stroke-opacity="0.05"/>
<circle cx="120" cy="76" r="0.5" stroke="#1FFCFF" stroke-opacity="0.05"/>
<circle cx="134" cy="6" r="0.5" stroke="#1FFCFF" stroke-opacity="0.05"/>
<circle cx="134" cy="20" r="0.5" stroke="#1FFCFF" stroke-opacity="0.05"/>
<circle cx="134" cy="34" r="0.5" stroke="#1FFCFF" stroke-opacity="0.05"/>
<circle cx="134" cy="48" r="0.5" stroke="#1FFCFF" stroke-opacity="0.05"/>
<circle cx="134" cy="62" r="0.5" stroke="#1FFCFF" stroke-opacity="0.05"/>
<circle cx="134" cy="76" r="0.5" stroke="#1FFCFF" stroke-opacity="0.05"/>
<circle cx="148" cy="6" r="0.5" stroke="#1FFCFF" stroke-opacity="0.05"/>
<circle cx="148" cy="20" r="0.5" stroke="#1FFCFF" stroke-opacity="0.05"/>
<circle cx="148" cy="34" r="0.5" stroke="#1FFCFF" stroke-opacity="0.05"/>
<circle cx="148" cy="48" r="0.5" stroke="#1FFCFF" stroke-opacity="0.05"/>
<circle cx="148" cy="62" r="0.5" stroke="#1FFCFF" stroke-opacity="0.05"/>
<circle cx="148" cy="76" r="0.5" stroke="#1FFCFF" stroke-opacity="0.05"/>
<circle cx="162" cy="6" r="0.5" stroke="#1FFCFF" stroke-opacity="0.05"/>
<circle cx="162" cy="20" r="0.5" stroke="#1FFCFF" stroke-opacity="0.05"/>
<circle cx="162" cy="34" r="0.5" stroke="#1FFCFF" stroke-opacity="0.05"/>
<circle cx="162" cy="48" r="0.5" stroke="#1FFCFF" stroke-opacity="0.05"/>
<circle cx="162" cy="62" r="0.5" stroke="#1FFCFF" stroke-opacity="0.05"/>
<circle cx="162" cy="76" r="0.5" stroke="#1FFCFF" stroke-opacity="0.05"/>
<circle cx="176" cy="6" r="0.5" stroke="#1FFCFF" stroke-opacity="0.05"/>
<circle cx="176" cy="20" r="0.5" stroke="#1FFCFF" stroke-opacity="0.05"/>
<circle cx="176" cy="34" r="0.5" stroke="#1FFCFF" stroke-opacity="0.05"/>
<circle cx="176" cy="48" r="0.5" stroke="#1FFCFF" stroke-opacity="0.05"/>
<circle cx="176" cy="62" r="0.5" stroke="#1FFCFF" stroke-opacity="0.05"/>
<circle cx="176" cy="76" r="0.5" stroke="#1FFCFF" stroke-opacity="0.05"/>
<circle cx="190" cy="6" r="0.5" stroke="#1FFCFF" stroke-opacity="0.05"/>
<circle cx="190" cy="20" r="0.5" stroke="#1FFCFF" stroke-opacity="0.05"/>
<circle cx="190" cy="34" r="0.5" stroke="#1FFCFF" stroke-opacity="0.05"/>
<circle cx="190" cy="48" r="0.5" stroke="#1FFCFF" stroke-opacity="0.05"/>
<circle cx="190" cy="62" r="0.5" stroke="#1FFCFF" stroke-opacity="0.05"/>
<circle cx="190" cy="76" r="0.5" stroke="#1FFCFF" stroke-opacity="0.05"/>
<circle cx="204" cy="6" r="0.5" stroke="#1FFCFF" stroke-opacity="0.05"/>
<circle cx="204" cy="20" r="0.5" stroke="#1FFCFF" stroke-opacity="0.05"/>
<circle cx="204" cy="34" r="0.5" stroke="#1FFCFF" stroke-opacity="0.05"/>
<circle cx="204" cy="48" r="0.5" stroke="#1FFCFF" stroke-opacity="0.05"/>
<circle cx="204" cy="62" r="0.5" stroke="#1FFCFF" stroke-opacity="0.05"/>
<circle cx="204" cy="76" r="0.5" stroke="#1FFCFF" stroke-opacity="0.05"/>
<circle cx="218" cy="6" r="0.5" stroke="#1FFCFF" stroke-opacity="0.05"/>
<circle cx="218" cy="20" r="0.5" stroke="#1FFCFF" stroke-opacity="0.05"/>
<circle cx="218" cy="34" r="0.5" stroke="#1FFCFF" stroke-opacity="0.05"/>
<circle cx="218" cy="48" r="0.5" stroke="#1FFCFF" stroke-opacity="0.05"/>
<circle cx="218" cy="62" r="0.5" stroke="#1FFCFF" stroke-opacity="0.05"/>
<circle cx="218" cy="76" r="0.5" stroke="#1FFCFF" stroke-opacity="0.05"/>
<circle cx="232" cy="6" r="0.5" stroke="#1FFCFF" stroke-opacity="0.05"/>
<circle cx="232" cy="20" r="0.5" stroke="#1FFCFF" stroke-opacity="0.05"/>
<circle cx="232" cy="34" r="0.5" stroke="#1FFCFF" stroke-opacity="0.05"/>
<circle cx="232" cy="48" r="0.5" stroke="#1FFCFF" stroke-opacity="0.05"/>
<circle cx="232" cy="62" r="0.5" stroke="#1FFCFF" stroke-opacity="0.05"/>
<circle cx="232" cy="76" r="0.5" stroke="#1FFCFF" stroke-opacity="0.05"/>
<circle cx="246" cy="6" r="0.5" stroke="#1FFCFF" stroke-opacity="0.05"/>
<circle cx="246" cy="20" r="0.5" stroke="#1FFCFF" stroke-opacity="0.05"/>
<circle cx="246" cy="34" r="0.5" stroke="#1FFCFF" stroke-opacity="0.05"/>
<circle cx="246" cy="48" r="0.5" stroke="#1FFCFF" stroke-opacity="0.05"/>
<circle cx="246" cy="62" r="0.5" stroke="#1FFCFF" stroke-opacity="0.05"/>
<circle cx="246" cy="76" r="0.5" stroke="#1FFCFF" stroke-opacity="0.05"/>
<circle cx="260" cy="6" r="0.5" stroke="#1FFCFF" stroke-opacity="0.05"/>
<circle cx="260" cy="20" r="0.5" stroke="#1FFCFF" stroke-opacity="0.05"/>
<circle cx="260" cy="34" r="0.5" stroke="#1FFCFF" stroke-opacity="0.05"/>
<circle cx="260" cy="48" r="0.5" stroke="#1FFCFF" stroke-opacity="0.05"/>
<circle cx="260" cy="62" r="0.5" stroke="#1FFCFF" stroke-opacity="0.05"/>
<circle cx="260" cy="76" r="0.5" stroke="#1FFCFF" stroke-opacity="0.05"/>
<circle cx="274" cy="6" r="0.5" stroke="#1FFCFF" stroke-opacity="0.05"/>
<circle cx="274" cy="20" r="0.5" stroke="#1FFCFF" stroke-opacity="0.05"/>
<circle cx="274" cy="34" r="0.5" stroke="#1FFCFF" stroke-opacity="0.05"/>
<circle cx="274" cy="48" r="0.5" stroke="#1FFCFF" stroke-opacity="0.05"/>
<circle cx="274" cy="62" r="0.5" stroke="#1FFCFF" stroke-opacity="0.05"/>
<circle cx="274" cy="76" r="0.5" stroke="#1FFCFF" stroke-opacity="0.05"/>
<circle cx="288" cy="6" r="0.5" stroke="#1FFCFF" stroke-opacity="0.05"/>
<circle cx="288" cy="20" r="0.5" stroke="#1FFCFF" stroke-opacity="0.05"/>
<circle cx="288" cy="34" r="0.5" stroke="#1FFCFF" stroke-opacity="0.05"/>
<circle cx="288" cy="48" r="0.5" stroke="#1FFCFF" stroke-opacity="0.05"/>
<circle cx="288" cy="62" r="0.5" stroke="#1FFCFF" stroke-opacity="0.05"/>
<circle cx="288" cy="76" r="0.5" stroke="#1FFCFF" stroke-opacity="0.05"/>
<circle cx="302" cy="6" r="0.5" stroke="#1FFCFF" stroke-opacity="0.05"/>
<circle cx="302" cy="20" r="0.5" stroke="#1FFCFF" stroke-opacity="0.05"/>
<circle cx="302" cy="34" r="0.5" stroke="#1FFCFF" stroke-opacity="0.05"/>
<circle cx="302" cy="48" r="0.5" stroke="#1FFCFF" stroke-opacity="0.05"/>
<circle cx="302" cy="62" r="0.5" stroke="#1FFCFF" stroke-opacity="0.05"/>
<circle cx="302" cy="76" r="0.5" stroke="#1FFCFF" stroke-opacity="0.05"/>
<circle cx="316" cy="6" r="0.5" stroke="#1FFCFF" stroke-opacity="0.05"/>
<circle cx="316" cy="20" r="0.5" stroke="#1FFCFF" stroke-opacity="0.05"/>
<circle cx="316" cy="34" r="0.5" stroke="#1FFCFF" stroke-opacity="0.05"/>
<circle cx="316" cy="48" r="0.5" stroke="#1FFCFF" stroke-opacity="0.05"/>
<circle cx="316" cy="62" r="0.5" stroke="#1FFCFF" stroke-opacity="0.05"/>
<circle cx="316" cy="76" r="0.5" stroke="#1FFCFF" stroke-opacity="0.05"/>
<circle cx="330" cy="6" r="0.5" stroke="#1FFCFF" stroke-opacity="0.05"/>
<circle cx="330" cy="20" r="0.5" stroke="#1FFCFF" stroke-opacity="0.05"/>
<circle cx="330" cy="34" r="0.5" stroke="#1FFCFF" stroke-opacity="0.05"/>
<circle cx="330" cy="48" r="0.5" stroke="#1FFCFF" stroke-opacity="0.05"/>
<circle cx="330" cy="62" r="0.5" stroke="#1FFCFF" stroke-opacity="0.05"/>
<circle cx="330" cy="76" r="0.5" stroke="#1FFCFF" stroke-opacity="0.05"/>
<circle cx="344" cy="6" r="0.5" stroke="#1FFCFF" stroke-opacity="0.05"/>
<circle cx="344" cy="20" r="0.5" stroke="#1FFCFF" stroke-opacity="0.05"/>
<circle cx="344" cy="34" r="0.5" stroke="#1FFCFF" stroke-opacity="0.05"/>
<circle cx="344" cy="48" r="0.5" stroke="#1FFCFF" stroke-opacity="0.05"/>
<circle cx="344" cy="62" r="0.5" stroke="#1FFCFF" stroke-opacity="0.05"/>
<circle cx="344" cy="76" r="0.5" stroke="#1FFCFF" stroke-opacity="0.05"/>
<circle cx="358" cy="6" r="0.5" stroke="#1FFCFF" stroke-opacity="0.05"/>
<circle cx="358" cy="20" r="0.5" stroke="#1FFCFF" stroke-opacity="0.05"/>
<circle cx="358" cy="34" r="0.5" stroke="#1FFCFF" stroke-opacity="0.05"/>
<circle cx="358" cy="48" r="0.5" stroke="#1FFCFF" stroke-opacity="0.05"/>
<circle cx="358" cy="62" r="0.5" stroke="#1FFCFF" stroke-opacity="0.05"/>
<circle cx="358" cy="76" r="0.5" stroke="#1FFCFF" stroke-opacity="0.05"/>
<circle cx="372" cy="6" r="0.5" stroke="#1FFCFF" stroke-opacity="0.05"/>
<circle cx="372" cy="20" r="0.5" stroke="#1FFCFF" stroke-opacity="0.05"/>
<circle cx="372" cy="34" r="0.5" stroke="#1FFCFF" stroke-opacity="0.05"/>
<circle cx="372" cy="48" r="0.5" stroke="#1FFCFF" stroke-opacity="0.05"/>
<circle cx="372" cy="62" r="0.5" stroke="#1FFCFF" stroke-opacity="0.05"/>
<circle cx="372" cy="76" r="0.5" stroke="#1FFCFF" stroke-opacity="0.05"/>
<circle cx="386" cy="6" r="0.5" stroke="#1FFCFF" stroke-opacity="0.05"/>
<circle cx="386" cy="20" r="0.5" stroke="#1FFCFF" stroke-opacity="0.05"/>
<circle cx="386" cy="34" r="0.5" stroke="#1FFCFF" stroke-opacity="0.05"/>
<circle cx="386" cy="48" r="0.5" stroke="#1FFCFF" stroke-opacity="0.05"/>
<circle cx="386" cy="62" r="0.5" stroke="#1FFCFF" stroke-opacity="0.05"/>
<circle cx="386" cy="76" r="0.5" stroke="#1FFCFF" stroke-opacity="0.05"/>
<circle cx="400" cy="6" r="0.5" stroke="#1FFCFF" stroke-opacity="0.05"/>
<circle cx="400" cy="20" r="0.5" stroke="#1FFCFF" stroke-opacity="0.05"/>
<circle cx="400" cy="34" r="0.5" stroke="#1FFCFF" stroke-opacity="0.05"/>
<circle cx="400" cy="48" r="0.5" stroke="#1FFCFF" stroke-opacity="0.05"/>
<circle cx="400" cy="62" r="0.5" stroke="#1FFCFF" stroke-opacity="0.05"/>
<circle cx="400" cy="76" r="0.5" stroke="#1FFCFF" stroke-opacity="0.05"/>
<circle cx="414" cy="6" r="0.5" stroke="#1FFCFF" stroke-opacity="0.05"/>
<circle cx="414" cy="20" r="0.5" stroke="#1FFCFF" stroke-opacity="0.05"/>
<circle cx="414" cy="34" r="0.5" stroke="#1FFCFF" stroke-opacity="0.05"/>
<circle cx="414" cy="48" r="0.5" stroke="#1FFCFF" stroke-opacity="0.05"/>
<circle cx="414" cy="62" r="0.5" stroke="#1FFCFF" stroke-opacity="0.05"/>
<circle cx="414" cy="76" r="0.5" stroke="#1FFCFF" stroke-opacity="0.05"/>
<circle cx="428" cy="6" r="0.5" stroke="#1FFCFF" stroke-opacity="0.05"/>
<circle cx="428" cy="20" r="0.5" stroke="#1FFCFF" stroke-opacity="0.05"/>
<circle cx="428" cy="34" r="0.5" stroke="#1FFCFF" stroke-opacity="0.05"/>
<circle cx="428" cy="48" r="0.5" stroke="#1FFCFF" stroke-opacity="0.05"/>
<circle cx="428" cy="62" r="0.5" stroke="#1FFCFF" stroke-opacity="0.05"/>
<circle cx="428" cy="76" r="0.5" stroke="#1FFCFF" stroke-opacity="0.05"/>
<circle cx="442" cy="6" r="0.5" stroke="#1FFCFF" stroke-opacity="0.05"/>
<circle cx="442" cy="20" r="0.5" stroke="#1FFCFF" stroke-opacity="0.05"/>
<circle cx="442" cy="34" r="0.5" stroke="#1FFCFF" stroke-opacity="0.05"/>
<circle cx="442" cy="48" r="0.5" stroke="#1FFCFF" stroke-opacity="0.05"/>
<circle cx="442" cy="62" r="0.5" stroke="#1FFCFF" stroke-opacity="0.05"/>
<circle cx="442" cy="76" r="0.5" stroke="#1FFCFF" stroke-opacity="0.05"/>
<circle cx="456" cy="6" r="0.5" stroke="#1FFCFF" stroke-opacity="0.05"/>
<circle cx="456" cy="20" r="0.5" stroke="#1FFCFF" stroke-opacity="0.05"/>
<circle cx="456" cy="34" r="0.5" stroke="#1FFCFF" stroke-opacity="0.05"/>
<circle cx="456" cy="48" r="0.5" stroke="#1FFCFF" stroke-opacity="0.05"/>
<circle cx="456" cy="62" r="0.5" stroke="#1FFCFF" stroke-opacity="0.05"/>
<circle cx="456" cy="76" r="0.5" stroke="#1FFCFF" stroke-opacity="0.05"/>
<circle cx="470" cy="6" r="0.5" stroke="#1FFCFF" stroke-opacity="0.05"/>
<circle cx="470" cy="20" r="0.5" stroke="#1FFCFF" stroke-opacity="0.05"/>
<circle cx="470" cy="34" r="0.5" stroke="#1FFCFF" stroke-opacity="0.05"/>
<circle cx="470" cy="48" r="0.5" stroke="#1FFCFF" stroke-opacity="0.05"/>
<circle cx="470" cy="62" r="0.5" stroke="#1FFCFF" stroke-opacity="0.05"/>
<circle cx="470" cy="76" r="0.5" stroke="#1FFCFF" stroke-opacity="0.05"/>
<circle cx="484" cy="6" r="0.5" stroke="#1FFCFF" stroke-opacity="0.05"/>
<circle cx="484" cy="20" r="0.5" stroke="#1FFCFF" stroke-opacity="0.05"/>
<circle cx="484" cy="34" r="0.5" stroke="#1FFCFF" stroke-opacity="0.05"/>
<circle cx="484" cy="48" r="0.5" stroke="#1FFCFF" stroke-opacity="0.05"/>
<circle cx="484" cy="62" r="0.5" stroke="#1FFCFF" stroke-opacity="0.05"/>
<circle cx="484" cy="76" r="0.5" stroke="#1FFCFF" stroke-opacity="0.05"/>
<circle cx="498" cy="6" r="0.5" stroke="#1FFCFF" stroke-opacity="0.05"/>
<circle cx="498" cy="20" r="0.5" stroke="#1FFCFF" stroke-opacity="0.05"/>
<circle cx="498" cy="34" r="0.5" stroke="#1FFCFF" stroke-opacity="0.05"/>
<circle cx="498" cy="48" r="0.5" stroke="#1FFCFF" stroke-opacity="0.05"/>
<circle cx="498" cy="62" r="0.5" stroke="#1FFCFF" stroke-opacity="0.05"/>
<circle cx="498" cy="76" r="0.5" stroke="#1FFCFF" stroke-opacity="0.05"/>
<circle cx="512" cy="6" r="0.5" stroke="#1FFCFF" stroke-opacity="0.05"/>
<circle cx="512" cy="20" r="0.5" stroke="#1FFCFF" stroke-opacity="0.05"/>
<circle cx="512" cy="34" r="0.5" stroke="#1FFCFF" stroke-opacity="0.05"/>
<circle cx="512" cy="48" r="0.5" stroke="#1FFCFF" stroke-opacity="0.05"/>
<circle cx="512" cy="62" r="0.5" stroke="#1FFCFF" stroke-opacity="0.05"/>
<circle cx="512" cy="76" r="0.5" stroke="#1FFCFF" stroke-opacity="0.05"/>
<circle cx="526" cy="6" r="0.5" stroke="#1FFCFF" stroke-opacity="0.05"/>
<circle cx="526" cy="20" r="0.5" stroke="#1FFCFF" stroke-opacity="0.05"/>
<circle cx="526" cy="34" r="0.5" stroke="#1FFCFF" stroke-opacity="0.05"/>
<circle cx="526" cy="48" r="0.5" stroke="#1FFCFF" stroke-opacity="0.05"/>
<circle cx="526" cy="62" r="0.5" stroke="#1FFCFF" stroke-opacity="0.05"/>
<circle cx="526" cy="76" r="0.5" stroke="#1FFCFF" stroke-opacity="0.05"/>
<circle cx="540" cy="6" r="0.5" stroke="#1FFCFF" stroke-opacity="0.05"/>
<circle cx="540" cy="20" r="0.5" stroke="#1FFCFF" stroke-opacity="0.05"/>
<circle cx="540" cy="34" r="0.5" stroke="#1FFCFF" stroke-opacity="0.05"/>
<circle cx="540" cy="48" r="0.5" stroke="#1FFCFF" stroke-opacity="0.05"/>
<circle cx="540" cy="62" r="0.5" stroke="#1FFCFF" stroke-opacity="0.05"/>
<circle cx="540" cy="76" r="0.5" stroke="#1FFCFF" stroke-opacity="0.05"/>
<circle cx="554" cy="6" r="0.5" stroke="#1FFCFF" stroke-opacity="0.05"/>
<circle cx="554" cy="20" r="0.5" stroke="#1FFCFF" stroke-opacity="0.05"/>
<circle cx="554" cy="34" r="0.5" stroke="#1FFCFF" stroke-opacity="0.05"/>
<circle cx="554" cy="48" r="0.5" stroke="#1FFCFF" stroke-opacity="0.05"/>
<circle cx="554" cy="62" r="0.5" stroke="#1FFCFF" stroke-opacity="0.05"/>
<circle cx="554" cy="76" r="0.5" stroke="#1FFCFF" stroke-opacity="0.05"/>
<path d="M16 86V1H98.5L109 12H467L476.5 1H561.5V86H476.5L467 74.5H109L98.5 86H16Z" stroke="#1FFCFF" stroke-width="2" stroke-linecap="round" stroke-linejoin="round"/>
</g>
<rect y="1" width="8" height="85" fill="#1FFCFF"/>
<rect x="569" y="1" width="8" height="85" fill="#1FFCFF"/>
</svg>
