<svg width="17" height="16" viewBox="0 0 17 16" fill="none" xmlns="http://www.w3.org/2000/svg">
<path fill-rule="evenodd" clip-rule="evenodd" d="M5.90039 2H10.9004C11.1765 2 11.4004 2.22386 11.4004 2.5V5.5C11.4004 5.77614 11.1765 6 10.9004 6H9.90039H6.90039H5.90039C5.62425 6 5.40039 5.77614 5.40039 5.5V2.5C5.40039 2.22386 5.62425 2 5.90039 2ZM7.40039 7H9.40039V8.5C9.40039 8.77614 9.62425 9 9.90039 9H12.4004V10H10.9004C10.072 10 9.40039 10.6716 9.40039 11.5V13.5C9.40039 14.3284 10.072 15 10.9004 15H13.9004C14.7288 15 15.4004 14.3284 15.4004 13.5V11.5C15.4004 10.6716 14.7288 10 13.9004 10H13.4004V8.5C13.4004 8.22386 13.1765 8 12.9004 8H10.4004V7H10.9004C11.7288 7 12.4004 6.32843 12.4004 5.5V2.5C12.4004 1.67157 11.7288 1 10.9004 1H5.90039C5.07196 1 4.40039 1.67157 4.40039 2.5V5.5C4.40039 6.32843 5.07196 7 5.90039 7H6.40039V8H3.90039C3.62425 8 3.40039 8.22386 3.40039 8.5V10H2.90039C2.07196 10 1.40039 10.6716 1.40039 11.5V13.5C1.40039 14.3284 2.07196 15 2.90039 15H5.90039C6.72882 15 7.40039 14.3284 7.40039 13.5V11.5C7.40039 10.6716 6.72882 10 5.90039 10H4.40039V9H6.90039C7.17653 9 7.40039 8.77614 7.40039 8.5V7ZM3.90039 11H2.90039C2.62425 11 2.40039 11.2239 2.40039 11.5V13.5C2.40039 13.7761 2.62425 14 2.90039 14H5.90039C6.17653 14 6.40039 13.7761 6.40039 13.5V11.5C6.40039 11.2239 6.17653 11 5.90039 11H3.90039ZM10.9004 11H12.9004H13.9004C14.1765 11 14.4004 11.2239 14.4004 11.5V13.5C14.4004 13.7761 14.1765 14 13.9004 14H10.9004C10.6242 14 10.4004 13.7761 10.4004 13.5V11.5C10.4004 11.2239 10.6242 11 10.9004 11Z" fill="#42E1E8"/>
</svg>
