<svg width="17" height="16" viewBox="0 0 17 16" fill="none" xmlns="http://www.w3.org/2000/svg">
<path d="M8.40039 4V8" stroke="#42E1E8" stroke-linecap="round" stroke-linejoin="round"/>
<path d="M11.7337 10L8.40039 8" stroke="#42E1E8" stroke-linecap="round" stroke-linejoin="round"/>
<path d="M12.4004 6H15.7337V2.66666" stroke="#42E1E8" stroke-linecap="round" stroke-linejoin="round"/>
<path d="M13.1533 12.714C12.2177 13.6464 11.0257 14.2813 9.72807 14.5386C8.43042 14.7958 7.08536 14.6638 5.863 14.1592C4.64063 13.6546 3.59586 12.8001 2.8608 11.7038C2.12574 10.6075 1.7334 9.31854 1.7334 8C1.7334 6.68146 2.12574 5.39253 2.8608 4.2962C3.59586 3.19988 4.64063 2.34539 5.863 1.84081C7.08536 1.33622 8.43042 1.2042 9.72807 1.46144C11.0257 1.71867 12.2177 2.35361 13.1533 3.28596L15.7334 5.85726" stroke="#42E1E8" stroke-linecap="round" stroke-linejoin="round"/>
</svg>
