<svg width="1371" height="710" viewBox="0 0 1371 710" fill="none" xmlns="http://www.w3.org/2000/svg">
<circle r="2.5" transform="matrix(-1 0 0 1 1361.5 48.5)" fill="#EB8B12"/>
<circle r="2.5" transform="matrix(-1 0 0 1 1206.5 187.5)" fill="white"/>
<circle r="2.5" transform="matrix(-1 0 0 1 1140.5 156.5)" fill="white"/>
<circle r="2.5" transform="matrix(-1 0 0 1 893.5 229.5)" fill="white"/>
<circle r="2.5" transform="matrix(-1 0 0 1 890.5 86.5)" fill="white"/>
<circle r="5" transform="matrix(-1 0 0 1 619 312)" fill="white"/>
<circle r="221.5" transform="matrix(-1 0 0 1 221.5 148.5)" fill="url(#paint0_radial_951_8562)"/>
<circle r="246" transform="matrix(-1 0 0 1 849 565)" fill="url(#paint1_radial_951_8562)"/>
<circle r="2.5" transform="matrix(-1 0 0 1 476.5 267.5)" fill="#EB8B12"/>
<circle r="2.5" transform="matrix(-1 0 0 1 410.5 422.5)" fill="white"/>
<circle r="2.5" transform="matrix(-0.581753 -0.813365 -0.813365 0.581753 700.879 469.194)" fill="white"/>
<circle r="2.5" transform="matrix(-1 0 0 1 298.5 461.5)" fill="white"/>
<circle r="2.5" transform="matrix(-0.581753 -0.813365 -0.813365 0.581753 604.001 400.786)" fill="white"/>
<circle r="2.5" transform="matrix(-1 0 0 1 136.5 531.5)" fill="white"/>
<circle r="2.5" transform="matrix(-1 0 0 1 303.5 648.5)" fill="white"/>
<circle r="2.5" transform="matrix(0.798232 -0.60235 -0.60235 -0.798232 858.172 373.501)" fill="white"/>
<circle r="2.5" transform="matrix(-1 0 0 1 471.5 582.5)" fill="#EB8B12"/>
<circle r="2.5" transform="matrix(-0.581753 -0.813365 -0.813365 0.581753 606.228 611.89)" fill="#EB8B12"/>
<circle r="2" transform="matrix(-1 0 0 1 1311 569)" fill="#EB8B12"/>
<circle r="2" transform="matrix(-1 0 0 1 1307 187)" fill="white"/>
<circle r="2" transform="matrix(-1 0 0 1 221 147)" fill="white"/>
<circle r="2" transform="matrix(-1 0 0 1 352 317)" fill="white"/>
<circle r="2" transform="matrix(-1 0 0 1 481 427)" fill="white"/>
<circle r="2" transform="matrix(-0.581753 -0.813365 -0.813365 0.581753 738.233 529.154)" fill="white"/>
<circle r="5" transform="matrix(-1 0 0 1 558 529)" fill="url(#paint2_linear_951_8562)"/>
<circle r="5" transform="matrix(-0.581753 -0.813365 -0.813365 0.581753 700.064 651.122)" fill="url(#paint3_linear_951_8562)"/>
<defs>
<radialGradient id="paint0_radial_951_8562" cx="0" cy="0" r="1" gradientUnits="userSpaceOnUse" gradientTransform="translate(221.5 221.5) rotate(90) scale(221.5)">
<stop stop-color="#0D3D55"/>
<stop offset="1" stop-color="#051F2C" stop-opacity="0"/>
</radialGradient>
<radialGradient id="paint1_radial_951_8562" cx="0" cy="0" r="1" gradientUnits="userSpaceOnUse" gradientTransform="translate(246 246) rotate(90) scale(246)">
<stop stop-color="#0D3D55"/>
<stop offset="1" stop-color="#051F2C" stop-opacity="0"/>
</radialGradient>
<linearGradient id="paint2_linear_951_8562" x1="5" y1="0" x2="5" y2="10" gradientUnits="userSpaceOnUse">
<stop stop-color="#95F2FF"/>
<stop offset="1" stop-color="#2A89ED"/>
</linearGradient>
<linearGradient id="paint3_linear_951_8562" x1="5" y1="0" x2="5" y2="10" gradientUnits="userSpaceOnUse">
<stop stop-color="#95F2FF"/>
<stop offset="1" stop-color="#2A89ED"/>
</linearGradient>
</defs>
</svg>
