<svg width="303" height="91" viewBox="0 0 303 91" fill="none" xmlns="http://www.w3.org/2000/svg">
<g opacity="0.82" filter="url(#filter0_ddi_174_271)">
<rect x="10" y="10" width="283" height="70.2844" rx="35.1422" fill="#EB8B12"/>
</g>
<g opacity="0.24">
<g filter="url(#filter1_i_174_271)">
<rect x="10" y="10.7156" width="283" height="70.2844" rx="35.1422" fill="#FCFBFB"/>
</g>
<rect x="5" y="5.71564" width="293" height="80.2844" rx="40.1422" stroke="#EB8B12" stroke-width="10"/>
</g>
<mask id="mask0_174_271" style="mask-type:alpha" maskUnits="userSpaceOnUse" x="11" y="10" width="283" height="71">
<rect x="11" y="10.7156" width="283" height="70.2844" rx="35.1422" fill="#00B0CB"/>
</mask>
<g mask="url(#mask0_174_271)">
<g opacity="0.7">
<g filter="url(#filter2_iiiii_174_271)">
<path d="M227.4 38.4625L230.211 43.5822C231.208 45.3984 231.208 47.6017 230.211 49.4179L227.4 54.5375C224.683 59.4846 229.586 65.0728 234.772 62.8879C238.967 61.1208 243.169 59.2842 246.147 57.8253C250.39 55.7467 254.561 53.2171 257.848 51.0764C261.217 48.8829 261.217 44.1172 257.848 41.9237C254.561 39.7829 250.39 37.2534 246.147 35.1747C243.169 33.7159 238.967 31.8793 234.772 30.1121C229.586 27.9273 224.683 33.5155 227.4 38.4625Z" fill="url(#paint0_linear_174_271)"/>
</g>
</g>
<path d="M111.344 53.7813C109.898 52.3985 109.176 50.2617 109.176 47.3711C109.176 44.4727 109.898 42.3321 111.344 40.9492C112.797 39.5586 114.973 38.8633 117.871 38.8633H120.484C122.258 38.8633 123.824 39.3242 125.184 40.2461C126.551 41.168 127.234 42.4297 127.234 44.0313C127.234 44.4922 127.098 44.8242 126.824 45.0274C126.551 45.2227 126.285 45.3203 126.027 45.3203H124.633C123.914 45.3203 123.355 44.8907 122.957 44.0313C122.379 42.7969 121.418 42.1797 120.074 42.1797H117.988C116.277 42.1797 115.117 42.5469 114.508 43.2813C113.898 44.0157 113.594 45.375 113.594 47.3594C113.594 49.3438 113.898 50.7071 114.508 51.4492C115.117 52.1836 116.277 52.5508 117.988 52.5508H120.32C121.664 52.5508 122.621 51.9336 123.191 50.6992C123.59 49.8321 124.152 49.3985 124.879 49.3985H126.273C126.641 49.3985 126.93 49.5352 127.141 49.8086C127.359 50.0821 127.469 50.3789 127.469 50.6992C127.469 52.3008 126.789 53.5625 125.43 54.4844C124.07 55.3985 122.504 55.8555 120.73 55.8555H117.871C114.973 55.8555 112.797 55.1641 111.344 53.7813ZM128.078 45.0391V43.6446C128.078 43.4336 128.145 43.2617 128.277 43.1289C128.418 42.9883 128.594 42.918 128.805 42.918H140.348C140.559 42.918 140.73 42.9883 140.863 43.1289C140.996 43.2617 141.062 43.4336 141.062 43.6446V45.0391C141.062 45.2422 140.996 45.4141 140.863 45.5547C140.73 45.6875 140.559 45.7539 140.348 45.7539H136.609V55.0469C136.609 55.25 136.539 55.4219 136.398 55.5625C136.266 55.6953 136.094 55.7617 135.883 55.7617H133.27C133.059 55.7617 132.883 55.6953 132.742 55.5625C132.609 55.4219 132.543 55.25 132.543 55.0469V45.7539H128.805C128.594 45.7539 128.418 45.6875 128.277 45.5547C128.145 45.4141 128.078 45.2422 128.078 45.0391ZM143.348 54.918C142.316 54.1992 141.801 53.1836 141.801 51.8711C141.801 50.5586 142.316 49.5508 143.348 48.8477C144.387 48.1446 145.723 47.793 147.355 47.793H151.234C151.234 46.8789 151.043 46.2422 150.66 45.8828C150.277 45.5235 149.605 45.3438 148.645 45.3438C147.691 45.3438 147.02 45.5821 146.629 46.0586C146.246 46.5274 145.773 46.7617 145.211 46.7617H143.465C143.254 46.7617 143.078 46.6953 142.938 46.5625C142.805 46.4219 142.738 46.25 142.738 46.0469C142.738 43.8047 144.867 42.6836 149.125 42.6836C150.984 42.6836 152.477 43.1016 153.602 43.9375C154.727 44.7657 155.289 46.0508 155.289 47.793V55.0469C155.289 55.2578 155.223 55.4297 155.09 55.5625C154.957 55.6953 154.785 55.7617 154.574 55.7617H152.312C152.102 55.7617 151.93 55.6953 151.797 55.5625C151.664 55.4219 151.598 55.25 151.598 55.0469V54.6836C150.363 55.5664 148.938 56.0039 147.32 55.9961C145.711 55.9961 144.387 55.6367 143.348 54.918ZM147.637 50.4532C147.09 50.4532 146.656 50.586 146.336 50.8516C146.023 51.1172 145.867 51.461 145.867 51.8828C145.867 52.3047 146.031 52.6524 146.359 52.9258C146.688 53.1992 147.152 53.336 147.754 53.336C148.957 53.336 150.117 52.9844 151.234 52.2813V50.4532H147.637ZM158.184 58.9961V43.6446C158.184 43.4336 158.25 43.2617 158.383 43.1289C158.523 42.9883 158.695 42.918 158.898 42.918H161.16C161.363 42.918 161.531 42.9883 161.664 43.1289C161.805 43.2617 161.875 43.4336 161.875 43.6446V43.9961C163.109 43.1211 164.543 42.6836 166.176 42.6836C167.809 42.6836 169.172 43.2617 170.266 44.418C171.359 45.5664 171.906 47.2149 171.906 49.3633C171.906 51.5039 171.34 53.1446 170.207 54.2852C169.074 55.4258 167.547 55.9961 165.625 55.9961C164.633 55.9961 163.504 55.7969 162.238 55.3985V58.9961C162.238 59.2071 162.168 59.3789 162.027 59.5117C161.895 59.6524 161.727 59.7227 161.523 59.7227H158.898C158.695 59.7227 158.523 59.6524 158.383 59.5117C158.25 59.3789 158.184 59.2071 158.184 58.9961ZM162.238 52.6914C163.246 53.0117 164.094 53.1719 164.781 53.1719C165.852 53.1719 166.609 52.8672 167.055 52.2578C167.508 51.6485 167.734 50.6758 167.734 49.3399C167.734 48.0039 167.52 47.0352 167.09 46.4336C166.668 45.8242 166.031 45.5196 165.18 45.5196C164.336 45.5196 163.355 45.8711 162.238 46.5742V52.6914ZM172.633 45.0391V43.6446C172.633 43.4336 172.699 43.2617 172.832 43.1289C172.973 42.9883 173.148 42.918 173.359 42.918H184.902C185.113 42.918 185.285 42.9883 185.418 43.1289C185.551 43.2617 185.617 43.4336 185.617 43.6446V45.0391C185.617 45.2422 185.551 45.4141 185.418 45.5547C185.285 45.6875 185.113 45.7539 184.902 45.7539H181.164V55.0469C181.164 55.25 181.094 55.4219 180.953 55.5625C180.82 55.6953 180.648 55.7617 180.438 55.7617H177.824C177.613 55.7617 177.438 55.6953 177.297 55.5625C177.164 55.4219 177.098 55.25 177.098 55.0469V45.7539H173.359C173.148 45.7539 172.973 45.6875 172.832 45.5547C172.699 45.4141 172.633 45.2422 172.633 45.0391ZM187.34 40.0703C187.324 39.7657 187.426 39.5039 187.645 39.2852C187.871 39.0664 188.137 38.9571 188.441 38.9571H190.961C191.266 38.9571 191.527 39.0664 191.746 39.2852C191.973 39.5039 192.078 39.7657 192.062 40.0703L191.734 49.6914C191.719 49.9961 191.605 50.2539 191.395 50.4649C191.184 50.668 190.93 50.7696 190.633 50.7696H188.781C188.477 50.7696 188.219 50.668 188.008 50.4649C187.805 50.2539 187.695 49.9961 187.68 49.6914L187.34 40.0703ZM190.434 51.9649C191.488 51.9649 192.016 52.4961 192.016 53.5586V54.2969C192.016 54.7891 191.879 55.1758 191.605 55.4571C191.34 55.7383 190.949 55.8789 190.434 55.8789H188.992C188.477 55.8789 188.082 55.7383 187.809 55.4571C187.543 55.1758 187.41 54.7891 187.41 54.2969V53.5586C187.41 53.043 187.547 52.6485 187.82 52.375C188.094 52.1016 188.484 51.9649 188.992 51.9649H190.434Z" fill="#FEFFFF"/>
</g>
<defs>
<filter id="filter0_ddi_174_271" x="2" y="10" width="295" height="78.2844" filterUnits="userSpaceOnUse" color-interpolation-filters="sRGB">
<feFlood flood-opacity="0" result="BackgroundImageFix"/>
<feColorMatrix in="SourceAlpha" type="matrix" values="0 0 0 0 0 0 0 0 0 0 0 0 0 0 0 0 0 0 127 0" result="hardAlpha"/>
<feOffset dy="4"/>
<feGaussianBlur stdDeviation="2"/>
<feColorMatrix type="matrix" values="0 0 0 0 0 0 0 0 0 0 0 0 0 0 0 0 0 0 0.25 0"/>
<feBlend mode="normal" in2="BackgroundImageFix" result="effect1_dropShadow_174_271"/>
<feColorMatrix in="SourceAlpha" type="matrix" values="0 0 0 0 0 0 0 0 0 0 0 0 0 0 0 0 0 0 127 0" result="hardAlpha"/>
<feOffset dy="4"/>
<feGaussianBlur stdDeviation="2"/>
<feComposite in2="hardAlpha" operator="out"/>
<feColorMatrix type="matrix" values="0 0 0 0 0 0 0 0 0 0 0 0 0 0 0 0 0 0 0.25 0"/>
<feBlend mode="normal" in2="effect1_dropShadow_174_271" result="effect2_dropShadow_174_271"/>
<feBlend mode="normal" in="SourceGraphic" in2="effect2_dropShadow_174_271" result="shape"/>
<feColorMatrix in="SourceAlpha" type="matrix" values="0 0 0 0 0 0 0 0 0 0 0 0 0 0 0 0 0 0 127 0" result="hardAlpha"/>
<feOffset dx="-8" dy="6"/>
<feGaussianBlur stdDeviation="4"/>
<feComposite in2="hardAlpha" operator="arithmetic" k2="-1" k3="1"/>
<feColorMatrix type="matrix" values="0 0 0 0 1 0 0 0 0 0.421333 0 0 0 0 0.0958334 0 0 0 1 0"/>
<feBlend mode="normal" in2="shape" result="effect3_innerShadow_174_271"/>
</filter>
<filter id="filter1_i_174_271" x="0" y="0.715637" width="303" height="102.284" filterUnits="userSpaceOnUse" color-interpolation-filters="sRGB">
<feFlood flood-opacity="0" result="BackgroundImageFix"/>
<feBlend mode="normal" in="SourceGraphic" in2="BackgroundImageFix" result="shape"/>
<feColorMatrix in="SourceAlpha" type="matrix" values="0 0 0 0 0 0 0 0 0 0 0 0 0 0 0 0 0 0 127 0" result="hardAlpha"/>
<feOffset dy="32"/>
<feGaussianBlur stdDeviation="6"/>
<feComposite in2="hardAlpha" operator="arithmetic" k2="-1" k3="1"/>
<feColorMatrix type="matrix" values="0 0 0 0 0.921569 0 0 0 0 0.545098 0 0 0 0 0.0705882 0 0 0 0.8 0"/>
<feBlend mode="normal" in2="shape" result="effect1_innerShadow_174_271"/>
</filter>
<filter id="filter2_iiiii_174_271" x="222.625" y="25.625" width="39.75" height="39.75" filterUnits="userSpaceOnUse" color-interpolation-filters="sRGB">
<feFlood flood-opacity="0" result="BackgroundImageFix"/>
<feBlend mode="normal" in="SourceGraphic" in2="BackgroundImageFix" result="shape"/>
<feColorMatrix in="SourceAlpha" type="matrix" values="0 0 0 0 0 0 0 0 0 0 0 0 0 0 0 0 0 0 127 0" result="hardAlpha"/>
<feOffset dx="2" dy="2"/>
<feGaussianBlur stdDeviation="3"/>
<feComposite in2="hardAlpha" operator="arithmetic" k2="-1" k3="1"/>
<feColorMatrix type="matrix" values="0 0 0 0 1 0 0 0 0 0.980833 0 0 0 0 0.808333 0 0 0 0.4 0"/>
<feBlend mode="normal" in2="shape" result="effect1_innerShadow_174_271"/>
<feColorMatrix in="SourceAlpha" type="matrix" values="0 0 0 0 0 0 0 0 0 0 0 0 0 0 0 0 0 0 127 0" result="hardAlpha"/>
<feOffset dx="-4" dy="-4"/>
<feGaussianBlur stdDeviation="3"/>
<feComposite in2="hardAlpha" operator="arithmetic" k2="-1" k3="1"/>
<feColorMatrix type="matrix" values="0 0 0 0 0.583333 0 0 0 0 0.21 0 0 0 0 0 0 0 0 0.2 0"/>
<feBlend mode="normal" in2="effect1_innerShadow_174_271" result="effect2_innerShadow_174_271"/>
<feColorMatrix in="SourceAlpha" type="matrix" values="0 0 0 0 0 0 0 0 0 0 0 0 0 0 0 0 0 0 127 0" result="hardAlpha"/>
<feOffset dx="1" dy="1"/>
<feGaussianBlur stdDeviation="1"/>
<feComposite in2="hardAlpha" operator="arithmetic" k2="-1" k3="1"/>
<feColorMatrix type="matrix" values="0 0 0 0 1 0 0 0 0 0.979583 0 0 0 0 0.795833 0 0 0 0.4 0"/>
<feBlend mode="normal" in2="effect2_innerShadow_174_271" result="effect3_innerShadow_174_271"/>
<feColorMatrix in="SourceAlpha" type="matrix" values="0 0 0 0 0 0 0 0 0 0 0 0 0 0 0 0 0 0 127 0" result="hardAlpha"/>
<feOffset dx="-2" dy="-2"/>
<feGaussianBlur stdDeviation="2"/>
<feComposite in2="hardAlpha" operator="arithmetic" k2="-1" k3="1"/>
<feColorMatrix type="matrix" values="0 0 0 0 0.304167 0 0 0 0 0.073 0 0 0 0 0 0 0 0 0.2 0"/>
<feBlend mode="normal" in2="effect3_innerShadow_174_271" result="effect4_innerShadow_174_271"/>
<feColorMatrix in="SourceAlpha" type="matrix" values="0 0 0 0 0 0 0 0 0 0 0 0 0 0 0 0 0 0 127 0" result="hardAlpha"/>
<feOffset dx="-1" dy="-1"/>
<feGaussianBlur stdDeviation="0.5"/>
<feComposite in2="hardAlpha" operator="arithmetic" k2="-1" k3="1"/>
<feColorMatrix type="matrix" values="0 0 0 0 0.984314 0 0 0 0 0.521569 0 0 0 0 0.105882 0 0 0 0.2 0"/>
<feBlend mode="normal" in2="effect4_innerShadow_174_271" result="effect5_innerShadow_174_271"/>
</filter>
<linearGradient id="paint0_linear_174_271" x1="244" y1="30" x2="244" y2="63" gradientUnits="userSpaceOnUse">
<stop stop-color="#FCBC18"/>
<stop offset="1" stop-color="#FF6F1E"/>
</linearGradient>
</defs>
</svg>
