<?xml version="1.0" standalone="no"?>
<!DOCTYPE svg PUBLIC "-//W3C//DTD SVG 20010904//EN"
 "http://www.w3.org/TR/2001/REC-SVG-20010904/DTD/svg10.dtd">
<svg version="1.0" xmlns="http://www.w3.org/2000/svg"
 width="1136.000000pt" height="1136.000000pt" viewBox="0 0 1136.000000 1136.000000"
 preserveAspectRatio="xMidYMid meet">
<metadata>
Created by potrace 1.14, written by Peter Selinger 2001-2017
</metadata>
<g transform="translate(0.000000,1136.000000) scale(0.100000,-0.100000)"
fill="#000000" stroke="none">
<path d="M5587 8783 c-4 -7 -181 -434 -242 -583 -12 -30 -61 -147 -107 -260
-164 -393 -351 -845 -373 -900 -12 -30 -50 -121 -84 -203 -33 -81 -61 -154
-61 -162 0 -13 33 -15 224 -15 169 0 227 3 233 13 4 6 31 75 59 152 l52 140
405 3 404 2 56 -152 55 -153 223 -5 c123 -3 228 -2 233 2 5 4 -77 222 -182
485 -105 263 -293 735 -417 1048 -125 314 -232 576 -237 583 -12 13 -233 18
-241 5z m132 -780 c34 -96 175 -476 201 -543 17 -41 30 -81 30 -87 0 -10 -58
-13 -255 -13 -145 0 -255 4 -255 9 0 5 24 71 54 148 29 76 86 225 126 331 41
105 76 192 80 192 3 0 12 -17 19 -37z"/>
<path d="M7664 7985 c-460 -84 -773 -414 -838 -884 -20 -140 -20 -202 -1 -341
56 -402 290 -700 641 -819 106 -36 179 -51 309 -62 268 -24 526 32 721 156 76
49 174 127 174 140 0 12 -251 265 -263 265 -5 0 -29 -18 -55 -39 -157 -131
-388 -187 -612 -147 -275 49 -454 222 -521 501 -17 74 -20 110 -16 205 6 136
23 206 77 317 48 98 144 202 236 255 249 145 586 126 813 -45 l64 -49 124 124
c68 68 122 128 121 134 -2 6 -28 33 -58 58 -127 109 -299 193 -464 227 -108
22 -340 24 -452 4z"/>
<path d="M2925 7928 c-3 -7 -4 -467 -3 -1023 l3 -1010 192 -3 193 -2 2 297 3
298 370 6 370 5 95 33 c294 100 468 332 486 646 17 295 -131 559 -383 682
-163 79 -196 83 -801 83 -409 0 -524 -3 -527 -12z m1010 -368 c187 -28 302
-149 313 -331 7 -116 -23 -195 -102 -275 -98 -97 -105 -99 -501 -99 l-330 0
-3 345 c-1 190 0 351 3 357 6 16 513 18 620 3z"/>
<path d="M1755 6779 c-127 -15 -243 -47 -340 -94 -212 -103 -321 -256 -332
-467 -12 -215 68 -383 231 -487 134 -84 259 -121 568 -165 235 -34 331 -69
408 -146 81 -81 80 -221 -2 -315 -85 -96 -232 -141 -437 -133 -105 5 -140 10
-213 35 -47 17 -109 45 -137 63 -59 37 -134 117 -162 172 -11 22 -27 38 -37
38 -9 0 -82 -35 -162 -78 -105 -56 -145 -82 -144 -95 1 -9 21 -51 45 -93 126
-220 330 -345 624 -385 117 -15 427 -6 511 15 287 72 470 218 536 430 31 96
33 303 4 386 -66 194 -198 314 -426 388 -89 29 -185 48 -386 77 -198 29 -283
52 -350 98 -138 93 -106 286 60 367 121 58 333 65 479 16 95 -32 177 -82 235
-144 l43 -46 142 73 c78 41 146 78 152 83 34 31 -152 239 -270 300 -172 89
-428 132 -640 107z"/>
<path d="M8825 6648 c-3 -7 -4 -467 -3 -1023 l3 -1010 765 0 765 0 0 190 0
190 -572 3 -573 2 0 225 0 225 553 2 552 3 0 180 0 180 -550 5 -550 5 0 225 0
225 570 5 570 5 0 185 0 185 -763 3 c-605 2 -764 0 -767 -10z"/>
<path d="M4764 6326 c-3 -9 -1 -67 5 -128 6 -62 14 -142 17 -178 10 -122 -7
-111 162 -108 l147 3 -4 35 c-1 19 -4 46 -4 60 l-2 25 609 3 609 2 -7 -65 -7
-65 150 0 149 0 6 53 c12 108 29 357 25 361 -2 2 -419 7 -927 10 -833 7 -923
6 -928 -8z"/>
<path d="M6190 5679 c-49 -15 -123 -67 -159 -112 -74 -94 -96 -252 -52 -369
29 -75 96 -149 163 -179 46 -21 69 -24 163 -24 98 0 116 3 159 25 113 58 176
161 184 302 6 104 -22 188 -85 258 -69 77 -127 102 -243 106 -52 2 -111 -1
-130 -7z m222 -165 c110 -71 110 -274 1 -349 -31 -21 -49 -25 -106 -25 -77 0
-112 14 -151 60 -73 88 -52 256 39 316 61 40 155 39 217 -2z"/>
<path d="M3052 5343 l3 -338 75 0 75 0 5 210 5 209 85 -117 c108 -151 106
-151 215 -5 44 59 83 107 87 107 4 1 9 -90 10 -201 l3 -203 75 0 75 0 3 338 2
337 -84 0 -84 0 -89 -122 c-49 -68 -94 -123 -102 -123 -7 0 -52 54 -100 120
l-87 120 -87 3 -87 3 2 -338z"/>
<path d="M4102 5343 l3 -338 258 -3 258 -2 -3 77 -3 78 -178 3 -178 2 3 53 3
52 170 5 170 5 3 58 c2 35 -2 64 -9 73 -9 11 -46 14 -176 14 l-164 0 3 53 3
52 178 3 177 2 0 75 0 75 -260 0 -260 0 2 -337z"/>
<path d="M4932 5343 l3 -338 75 0 75 0 3 203 c1 111 6 202 10 202 4 0 43 -50
87 -110 103 -143 101 -143 215 7 l85 113 5 -208 5 -207 78 -3 77 -3 0 341 0
340 -83 0 -83 0 -93 -126 c-50 -69 -96 -124 -102 -122 -6 2 -50 57 -98 123
l-88 120 -86 3 -87 3 2 -338z"/>
<path d="M6960 5340 l0 -341 78 3 77 3 3 102 c3 100 3 103 27 109 45 11 71 -4
138 -83 120 -142 107 -133 198 -133 61 0 81 3 85 15 4 9 -25 50 -80 112 -47
54 -85 101 -84 105 2 4 19 17 38 30 151 102 117 341 -57 404 -27 9 -96 13
-230 14 l-193 0 0 -340z m386 166 c35 -30 37 -87 5 -120 -19 -19 -33 -21 -124
-21 l-102 0 -3 83 -3 82 100 0 c91 0 102 -2 127 -24z"/>
<path d="M7800 5665 c0 -8 56 -100 125 -203 l125 -187 0 -137 0 -138 75 0 75
0 0 136 0 136 130 189 c72 104 130 196 130 204 0 12 -17 15 -87 15 l-88 0 -73
-115 c-41 -63 -78 -117 -82 -120 -5 -3 -41 49 -82 115 l-73 120 -87 0 c-72 0
-88 -3 -88 -15z"/>
<path d="M4900 4771 c0 -42 43 -5 -454 -394 -83 -66 -152 -120 -154 -122 -1
-1 9 -92 23 -201 14 -110 41 -317 59 -462 18 -144 36 -265 39 -269 7 -6 34 14
272 202 77 61 235 184 350 274 116 90 218 173 229 185 16 18 18 34 15 121 l-4
100 35 4 c19 1 207 0 418 -4 l382 -7 0 -104 0 -104 419 -335 c230 -184 423
-335 428 -335 9 0 30 136 99 645 13 99 28 204 33 232 l8 53 -303 241 -304 242
6 39 7 38 -169 -2 -169 -3 -12 -110 c-7 -60 -15 -129 -18 -153 l-6 -42 -427 2
-426 3 -12 85 c-7 47 -15 115 -19 153 l-7 67 -169 0 -169 0 0 -39z m19 -458
c31 -118 41 -163 41 -177 0 -20 -289 -251 -300 -240 -5 5 -20 56 -35 113 -21
85 -23 107 -13 117 29 28 282 224 289 224 5 0 13 -17 18 -37z m1714 -74 c76
-61 140 -116 143 -124 6 -15 -42 -205 -55 -218 -10 -10 -301 219 -301 237 0
13 50 198 57 209 2 4 7 7 11 7 4 0 69 -50 145 -111z"/>
<path d="M5523 3904 c-3 -9 -3 -102 1 -208 3 -105 6 -393 6 -641 1 -247 3
-459 6 -472 6 -23 8 -23 152 -23 l145 0 -6 347 c-4 190 -7 496 -7 680 l0 333
-145 0 c-125 0 -147 -2 -152 -16z"/>
<path d="M6072 3213 l3 -368 149 -3 149 -3 -6 233 c-4 128 -7 295 -7 371 l0
137 -145 0 -145 0 2 -367z"/>
<path d="M4996 3542 c-2 -4 -2 -171 1 -370 l6 -363 144 3 144 3 -1 359 c0 197
-3 363 -6 367 -7 11 -281 12 -288 1z"/>
</g>
</svg>
